<?xml version="1.0" encoding="utf-8"?>
<!-- Generator: Adobe Illustrator 25.4.1, SVG Export Plug-In . SVG Version: 6.00 Build 0)  -->
<svg version="1.1" id="Layer_1" xmlns="http://www.w3.org/2000/svg" xmlns:xlink="http://www.w3.org/1999/xlink" x="0px" y="0px"
	 viewBox="0 0 256 256" style="enable-background:new 0 0 256 256;" xml:space="preserve">
<style type="text/css">
	.st0{fill:#FFFFFF;}
	.st1{fill:url(#SVGID_1_);}
	.st2{fill:url(#SVGID_00000016069816986190372130000005577200655960853665_);}
	.st3{fill:url(#SVGID_00000132057042723383622590000018122194068939587474_);}
	.st4{fill:url(#SVGID_00000148656460592527576330000002632501953652524985_);}
	.st5{fill:url(#SVGID_00000122706834766833453540000013378761084143672490_);}
	.st6{fill:url(#SVGID_00000060005473750051286230000014312407390618169216_);}
	.st7{fill:url(#SVGID_00000142152060922786825980000014219186931374544309_);}
	.st8{fill:url(#SVGID_00000063599250882188738000000016171420707521922962_);}
	.st9{fill:url(#SVGID_00000183248483714420345270000003336322465646335664_);}
	.st10{fill:url(#SVGID_00000071544879237291413110000015403107360817160093_);}
	.st11{fill:url(#SVGID_00000069369696244271743880000011533413222461527706_);}
	.st12{opacity:0.5;fill:#FFFFFF;}
</style>
<rect x="-2848.8" y="576" class="st0" width="193.7" height="256"/>
<path class="st0" d="M-2464-288c-28,0-50.8,22.7-50.8,50.8v70.3c0,28,22.7,50.8,50.8,50.8s50.8-22.7,50.8-50.8v-70.3
	C-2413.2-265.3-2436-288-2464-288z"/>
<polygon class="st0" points="-3042.5,-3905 -2957,-3990.7 -2998.3,-4032 -3125,-3905 -2996.3,-3776 -2955,-3817.3 "/>
<polygon class="st0" points="-2784.7,-3872.7 -2784.8,-3993.7 -2843.2,-3993.8 -2843,-3814.4 -2660.8,-3814.2 -2660.8,-3872.6 "/>
<polygon class="st0" points="-2465,-3901.5 -2550.7,-3987 -2592,-3945.7 -2465,-3819 -2336,-3947.7 -2377.3,-3989 "/>
<polygon class="st0" points="-2144.7,-3871.3 -2265.7,-3871.2 -2265.8,-3812.8 -2086.4,-3813 -2086.2,-3995.2 -2144.6,-3995.2 "/>
<polygon class="st0" points="-1885.5,-3903 -1971,-3817.3 -1929.7,-3776 -1803,-3903 -1931.7,-4032 -1973,-3990.7 "/>
<polygon class="st0" points="-1567.3,-3935.3 -1567.2,-3814.3 -1508.8,-3814.2 -1509,-3993.6 -1691.2,-3993.8 -1691.2,-3935.4 "/>
<polygon class="st0" points="-1311,-3906.5 -1225.3,-3821 -1184,-3862.3 -1311,-3989 -1440,-3860.3 -1398.7,-3819 "/>
<polygon class="st0" points="-1055.3,-3936.7 -934.3,-3936.8 -934.2,-3995.2 -1113.6,-3995 -1113.8,-3812.8 -1055.4,-3812.8 "/>
<polygon class="st0" points="-3160.7,-3616 -2919.3,-3736.7 -2919.3,-3495.3 "/>
<polygon class="st0" points="-2912,0 -3024.4,100.2 -3024.4,0 -3168,128 -3024.4,256 -3024.4,155.8 -2912,256 "/>
<polygon class="st0" points="-3168,544 -3055.6,443.8 -3055.6,544 -2912,416 -3055.6,288 -3055.6,388.2 -3168,288 "/>
<polygon class="st0" points="-2535.8,128 -2392.2,0 -2392.2,256 "/>
<polygon class="st0" points="-2392.2,416 -2535.8,544 -2535.8,288 "/>
<polygon class="st0" points="-2880,-3488 -2794.7,-3744 -2624,-3573.3 "/>
<polygon class="st0" points="-2462.2,-3495.3 -2582.9,-3736.7 -2341.5,-3736.7 "/>
<polygon class="st0" points="-2048,-3488 -2304,-3573.3 -2133.3,-3744 "/>
<polygon class="st0" points="-1767.3,-3616 -2008.7,-3495.3 -2008.7,-3736.7 "/>
<polygon class="st0" points="-1472,-3744 -1557.3,-3488 -1728,-3658.7 "/>
<polygon class="st0" points="-1312,-3736.7 -1191.3,-3495.3 -1432.7,-3495.3 "/>
<polygon class="st0" points="-1152,-3744 -896,-3658.7 -1066.7,-3488 "/>
<polygon class="st0" points="-2912,-3355.5 -3028.5,-3355.5 -3028.5,-3408.5 -3168,-3328 -3028.5,-3247.5 -3028.5,-3300.5 
	-2912,-3300.5 "/>
<polygon class="st0" points="-2690.7,-3428.2 -2773,-3345.9 -2810.5,-3383.4 -2852.2,-3227.8 -2696.6,-3269.5 -2734.1,-3307 
	-2651.8,-3389.3 "/>
<polygon class="st0" points="-2491.5,-3456 -2491.5,-3339.5 -2544.5,-3339.5 -2464,-3200 -2383.5,-3339.5 -2436.5,-3339.5 
	-2436.5,-3456 "/>
<polygon class="st0" points="-1339.5,-574.6 -1339.5,-478.9 -1392.5,-478.9 -1312,-364.2 -1231.5,-478.9 -1284.5,-478.9 
	-1284.5,-574.6 "/>
<polygon class="st0" points="-2276.2,-3389.3 -2193.9,-3307 -2231.4,-3269.5 -2075.8,-3227.8 -2117.5,-3383.4 -2155,-3345.9 
	-2237.3,-3428.2 "/>
<polygon class="st0" points="-2016,-3300.5 -1899.5,-3300.5 -1899.5,-3247.5 -1760,-3328 -1899.5,-3408.5 -1899.5,-3355.5 
	-2016,-3355.5 "/>
<polygon class="st0" points="-1671.1,-3218 -1588.7,-3300.4 -1551.2,-3262.9 -1509.5,-3418.5 -1665.1,-3376.8 -1627.6,-3339.3 
	-1710,-3256.9 "/>
<polygon class="st0" points="-1284.5,-3200 -1284.5,-3316.5 -1231.5,-3316.5 -1312,-3456 -1392.5,-3316.5 -1339.5,-3316.5 
	-1339.5,-3200 "/>
<polygon class="st0" points="-923.8,-3266.7 -1006.1,-3349 -968.6,-3386.5 -1124.2,-3428.2 -1082.5,-3272.6 -1045,-3310.1 
	-962.7,-3227.8 "/>
<polygon class="st0" points="-3080.1,-3042.6 -2971.5,-3151.2 -2988.4,-3168 -3113.7,-3042.6 -2983.1,-2912 -2966.3,-2928.8 "/>
<polygon class="st0" points="-2820.6,-2975.2 -2820.6,-3128.6 -2844.4,-3128.6 -2844.4,-2951.4 -2659.6,-2951.4 -2659.6,-2975.2 "/>
<polygon class="st0" points="-2466.6,-2999.9 -2575.2,-3108.5 -2592,-3091.6 -2466.6,-2966.3 -2336,-3096.9 -2352.8,-3113.7 "/>
<polygon class="st0" points="-2111.2,-2971.4 -2264.6,-2971.4 -2264.6,-2947.6 -2087.4,-2947.6 -2087.4,-3132.4 -2111.2,-3132.4 "/>
<polygon class="st0" points="-1847.9,-3037.4 -1956.5,-2928.8 -1939.6,-2912 -1814.3,-3037.4 -1944.9,-3168 -1961.7,-3151.2 "/>
<polygon class="st0" points="-1531.4,-3104.8 -1531.4,-2951.4 -1507.6,-2951.4 -1507.6,-3128.6 -1692.4,-3128.6 -1692.4,-3104.8 "/>
<polygon class="st0" points="-1309.4,-3080.1 -1200.8,-2971.5 -1184,-2988.4 -1309.4,-3113.7 -1440,-2983.1 -1423.2,-2966.3 "/>
<polygon class="st0" points="-1088.8,-3108.6 -935.4,-3108.6 -935.4,-3132.4 -1112.6,-3132.4 -1112.6,-2947.6 -1088.8,-2947.6 "/>
<polygon class="st0" points="-2912,-1928 -3000,-1928 -3000,-2016 -3080,-2016 -3080,-1928 -3168,-1928 -3168,-1848 -3080,-1848 
	-3080,-1760 -3000,-1760 -3000,-1848 -2912,-1848 "/>
<path class="st0" d="M-2624-1928h-88v-88h-80v88h-88v80h88v88h80v-88h88V-1928z M-2752-2002.9l30.4,52.7h-60.8L-2752-2002.9z"/>
<path class="st0" d="M-2336-1928h-88v-88h-80v88h-88v80h88v88h80v-88h88V-1928z M-2527.7-1857.6l-52.7-30.4l52.7-30.4V-1857.6z"/>
<path class="st0" d="M-2048-1928h-88v-88h-80v88h-88v80h88v88h80v-88h88V-1928z M-2176-1768.5l-30.4-52.7h60.8L-2176-1768.5z"/>
<path class="st0" d="M-1760-1928h-88v-88h-80v88h-88v80h88v88h80v-88h88V-1928z M-1824.3-1857.6v-60.8l52.7,30.4L-1824.3-1857.6z"/>
<path class="st0" d="M-1472-1928h-88v-88h-80v88h-88v80h88v88h80v-88h88V-1928z M-1600-2002.9l30.4,52.7h-60.8L-1600-2002.9z
	 M-1600-1768.5l-30.4-52.7h60.8L-1600-1768.5z"/>
<path class="st0" d="M-1184-1928h-88v-88h-80v88h-88v80h88v88h80v-88h88V-1928z M-1375.7-1857.6l-52.7-30.4l52.7-30.4V-1857.6z
	 M-1246.2-1857.6l0-60.8l52.7,30.4L-1246.2-1857.6z"/>
<path class="st0" d="M-896-1928h-88v-88h-80v88h-88v80h88v88h80v-88h88V-1928z M-1024-2005.2l30.4,52.7h-60.8L-1024-2005.2z
	 M-1088.8-1857.6l-52.7-30.4l52.7-30.4V-1857.6z M-1024-1770.8l-30.4-52.7h60.8L-1024-1770.8z M-959.2-1857.6v-60.8l52.7,30.4
	L-959.2-1857.6z"/>
<path class="st0" d="M-608-1928h-88v-88h-80v88h-88v80h88v88h80v-88h88V-1928z M-736-1768.5l-30.4-52.7h60.8L-736-1768.5z
	 M-672.3-1857.6v-60.8l52.7,30.4L-672.3-1857.6z"/>
<path class="st0" d="M-320-1928h-88v-88h-80v88h-88v80h88v88h80v-88h88V-1928z M-448-2002.9l30.4,52.7h-60.8L-448-2002.9z
	 M-384.3-1857.6v-60.8l52.7,30.4L-384.3-1857.6z"/>
<path class="st0" d="M-32-1928h-88v-88h-80v88h-88v80h88v88h80v-88h88V-1928z M-160-2002.9l30.4,52.7h-60.8L-160-2002.9z
	 M-223.7-1857.6l-52.7-30.4l52.7-30.4V-1857.6z"/>
<path class="st0" d="M256-1928h-88v-88H88v88H0v80h88v88h80v-88h88V-1928z M64.3-1857.6L11.7-1888l52.7-30.4V-1857.6z M128-1768.5
	l-30.4-52.7h60.8L128-1768.5z"/>
<path class="st0" d="M1120-1928h-88v-88h-80v88h-88v80h88v88h80v-88h88V-1928z M928.3-1857.6l-52.7-30.4l52.7-30.4V-1857.6z
	 M992-1768.5l-30.4-52.7h60.8L992-1768.5z M1057.8-1857.6l0-60.8l52.7,30.4L1057.8-1857.6z"/>
<path class="st0" d="M1408-1928h-88v-88h-80v88h-88v80h88v88h80v-88h88V-1928z M1280-2002.9l30.4,52.7h-60.8L1280-2002.9z
	 M1216.3-1857.6l-52.7-30.4l52.7-30.4V-1857.6z M1345.8-1857.6l0-60.8l52.7,30.4L1345.8-1857.6z"/>
<path class="st0" d="M544-1928h-88v-88h-80v88h-88v80h88v88h80v-88h88V-1928z M416-2002.9l30.4,52.7h-60.8L416-2002.9z
	 M352.3-1857.6l-52.7-30.4l52.7-30.4V-1857.6z M416-1768.5l-30.4-52.7h60.8L416-1768.5z"/>
<path class="st0" d="M832-1928h-88v-88h-80v88h-88v80h88v88h80v-88h88V-1928z M704-2002.9l30.4,52.7h-60.8L704-2002.9z M704-1768.5
	l-30.4-52.7h60.8L704-1768.5z M767.7-1857.6v-60.8l52.7,30.4L767.7-1857.6z"/>
<path class="st0" d="M-864-2592v256h256v-256H-864z M-646-2374h-180v-180h180V-2374z"/>
<path class="st0" d="M-448-2574.9l-128,221.7h256L-448-2574.9z M-448-2508.9l71.8,124.4h-143.6L-448-2508.9z"/>
<path class="st0" d="M-160-2592c-70.7,0-128,57.3-128,128s57.3,128,128,128s128-57.3,128-128S-89.3-2592-160-2592z M-160-2374
	c-49.7,0-90-40.3-90-90s40.3-90,90-90s90,40.3,90,90S-110.3-2374-160-2374z"/>
<polygon class="st0" points="256,-2551.6 215.6,-2592 128,-2504.4 40.4,-2592 0,-2551.6 87.6,-2464 0,-2376.4 40.4,-2336 
	128,-2423.6 215.6,-2336 256,-2376.4 168.4,-2464 "/>
<g>
	<path class="st0" d="M369.7-2416.5l-26.6,80.5h-34.2l87-256h39.9l87.4,256h-35.3l-27.3-80.5H369.7z M453.6-2442.4l-25.1-73.7
		c-5.7-16.7-9.5-31.9-13.3-46.7h-0.8c-3.8,15.2-8,30.8-12.9,46.3l-25.1,74.1H453.6z"/>
</g>
<g>
	<path class="st0" d="M624.6-2586.8c14.2-3,36.6-5.2,59.4-5.2c32.5,0,53.4,5.6,69.1,18.3c13.1,9.7,20.9,24.7,20.9,44.5
		c0,24.3-16.1,45.6-42.6,55.3v0.7c23.9,6,51.9,25.8,51.9,63.2c0,21.7-8.6,38.1-21.3,50.5c-17.6,16.1-46,23.5-87.1,23.5
		c-22.4,0-39.6-1.5-50.5-3V-2586.8z M657.1-2483.6h29.5c34.4,0,54.6-17.9,54.6-42.2c0-29.5-22.4-41.1-55.3-41.1
		c-15,0-23.5,1.1-28.8,2.2V-2483.6z M657.1-2362.9c6.4,1.1,15.7,1.5,27.3,1.5c33.6,0,64.7-12.3,64.7-49c0-34.4-29.5-48.6-65-48.6
		h-26.9V-2362.9z"/>
</g>
<g>
	<path class="st0" d="M1052.6-2336l-32.7-56.6c-13.3-21.6-21.7-35.7-29.6-50.5h-0.8c-7.2,14.8-14.4,28.5-27.7,50.9L931-2336h-38
		l78.2-129.5L896.1-2592h38.4l33.8,60c9.5,16.7,16.7,29.6,23.5,43.3h1.1c7.2-15.2,13.7-27,23.2-43.3l34.9-60h38l-77.9,124.6
		l79.8,131.4H1052.6z"/>
</g>
<g>
	<path class="st0" d="M1260.8-2336v-108.6l-80.9-147.4h37.6l36.1,70.6c9.9,19.4,17.5,34.9,25.4,52.8h0.8c7.2-16.7,16-33.4,25.8-52.8
		l36.8-70.6h37.6l-85.8,147v109H1260.8z"/>
</g>
<text transform="matrix(1 0 0 1 1452.0161 -3546.8779)" class="st0" style="font-family:'MyriadPro-Regular'; font-size:235.5092px;">L2</text>
<text transform="matrix(1 0 0 1 1452.0162 -3834.8779)" class="st0" style="font-family:'MyriadPro-Regular'; font-size:235.5092px;">L1</text>
<text transform="matrix(1 0 0 1 1452.0157 -3258.8779)" class="st0" style="font-family:'MyriadPro-Regular'; font-size:235.5092px;">L3</text>
<text transform="matrix(1 0 0 1 1732.2428 -3834.8779)" class="st0" style="font-family:'MyriadPro-Regular'; font-size:235.5092px;">R1</text>
<text transform="matrix(1 0 0 1 1732.2428 -3546.8779)" class="st0" style="font-family:'MyriadPro-Regular'; font-size:235.5092px;">R2</text>
<text transform="matrix(1 0 0 1 1732.2428 -3258.8779)" class="st0" style="font-family:'MyriadPro-Regular'; font-size:235.5092px;">R3</text>
<path class="st0" d="M1440-3168v256h256v-256H1440z M1571.9-2960.6h-88.3v-158.7h20.5v141.5h67.8V-2960.6z M1652.4-2960.6h-20
	v-133.8h-0.5l-26.6,14.4l-4-15.8l33.4-17.9h17.7V-2960.6z"/>
<path class="st0" d="M1440-2880v256h256v-256H1440z M1555.5-2672.6h-88.3v-158.7h20.5v141.5h67.8V-2672.6z M1668.8-2672.6h-97.7
	v-12.7l16.2-15.8c39.1-37.2,56.8-57,57-80.1c0-15.5-7.5-29.9-30.4-29.9c-13.9,0-25.4,7.1-32.5,13l-6.6-14.6
	c10.6-8.9,25.7-15.5,43.3-15.5c33,0,46.9,22.6,46.9,44.5c0,28.3-20.5,51.1-52.8,82.2l-12.2,11.3v0.5h68.8V-2672.6z"/>
<path class="st0" d="M1568-2592c-70.7,0-128,57.3-128,128s57.3,128,128,128s128-57.3,128-128S1638.7-2592,1568-2592z M1558-2393.3
	h-80V-2537h18.6v128.2h61.4V-2393.3z M1607.5-2391c-15.6,0-29.2-4.9-36-9.4l5.1-14.5c5.3,3.4,17.7,8.7,30.7,8.7
	c24.1,0,31.6-15.4,31.4-26.9c-0.2-19.4-17.7-27.7-35.8-27.7h-10.5v-14.1h10.5c13.6,0,30.9-7,30.9-23.5c0-11.1-7-20.9-24.3-20.9
	c-11.1,0-21.8,4.9-27.7,9.2l-4.9-13.6c7.3-5.3,21.3-10.7,36.3-10.7c27.3,0,39.7,16.2,39.7,33.1c0,14.3-8.5,26.4-25.6,32.6v0.4
	c17.1,3.4,30.9,16.2,30.9,35.6C1658-2410.4,1640.7-2391,1607.5-2391z"/>
<g>
	<path class="st0" d="M1856-2592c-70.7,0-128,57.3-128,128s57.3,128,128,128s128-57.3,128-128S1926.7-2592,1856-2592z M1835-2397.9
		c-2.2-3.8-5.1-15.2-8.9-31.8c-4-18.4-11.1-25.3-26.7-25.9h-16.2v57.8H1766v-131.5c8.7-1.8,21.2-2.8,33-2.8
		c18.4,0,30.3,3.4,38.6,10.9c6.7,5.9,10.5,15,10.5,25.3c0,17.6-11.1,29.3-25.1,34v0.6c10.3,3.6,16.4,13.1,19.6,26.9
		c4.4,18.6,7.5,31.5,10.3,36.6H1835z M1899.1-2395.8c-14.4,0-27.1-4.5-33.4-8.7l4.7-13.5c4.9,3.2,16.4,8.1,28.5,8.1
		c22.4,0,29.3-14.2,29.1-24.9c-0.2-18-16.4-25.7-33.2-25.7h-9.7v-13.1h9.7c12.7,0,28.7-6.5,28.7-21.8c0-10.3-6.5-19.4-22.5-19.4
		c-10.3,0-20.2,4.5-25.7,8.5l-4.5-12.7c6.7-4.9,19.8-9.9,33.6-9.9c25.3,0,36.8,15,36.8,30.7c0,13.3-7.9,24.5-23.7,30.3v0.4
		c15.8,3.2,28.7,15,28.7,33C1946-2413.8,1930-2395.8,1899.1-2395.8z"/>
	<path class="st0" d="M1830.9-2494.1c0-17.2-12.5-24.7-30.7-24.9c-8.3,0-14.2,0.8-17,1.6v48.7h17.6
		C1819.2-2468.7,1830.9-2478.8,1830.9-2494.1z"/>
</g>
<g>
	<path class="st0" d="M1841-3074.5c0-20.5-14.8-29.4-36.5-29.7c-9.9,0-17,0.9-20.3,1.9v57.9h21
		C1827.2-3044.4,1841-3056.4,1841-3074.5z"/>
	<path class="st0" d="M1728-3168v256h256v-256H1728z M1846-2960c-2.6-4.5-6.1-18.1-10.6-37.9c-4.7-21.9-13.2-30.1-31.8-30.9h-19.3
		v68.8h-20.5v-156.6c10.4-2.1,25.2-3.3,39.3-3.3c21.9,0,36,4,45.9,13c8,7.1,12.5,17.9,12.5,30.1c0,21-13.2,34.9-29.9,40.5v0.7
		c12.2,4.2,19.5,15.5,23.3,32c5.2,22.1,8.9,37.4,12.2,43.6H1846z M1948.2-2960h-20v-133.8h-0.5l-26.6,14.4l-4-15.8l33.4-17.9h17.7
		V-2960z"/>
</g>
<g>
	<path class="st0" d="M1824.7-2786.5c0-20.5-14.8-29.4-36.5-29.7c-9.9,0-17,0.9-20.3,1.9v57.9h21
		C1810.8-2756.4,1824.7-2768.4,1824.7-2786.5z"/>
	<path class="st0" d="M1728-2880v256h256v-256H1728z M1829.6-2672c-2.6-4.5-6.1-18.1-10.6-37.9c-4.7-21.9-13.2-30.1-31.8-30.9h-19.3
		v68.8h-20.5v-156.6c10.4-2.1,25.2-3.3,39.3-3.3c21.9,0,36,4,45.9,13c8,7.1,12.5,17.9,12.5,30.1c0,21-13.2,34.9-29.9,40.5v0.7
		c12.2,4.2,19.5,15.5,23.3,32c5.2,22.1,8.9,37.4,12.2,43.6H1829.6z M1964.6-2672h-97.7v-12.7l16.2-15.8c39.1-37.2,56.8-57,57-80.1
		c0-15.5-7.5-29.9-30.4-29.9c-13.9,0-25.4,7.1-32.5,13l-6.6-14.6c10.6-8.9,25.7-15.5,43.3-15.5c33,0,46.9,22.6,46.9,44.5
		c0,28.3-20.5,51.1-52.8,82.2l-12.2,11.3v0.5h68.8V-2672z"/>
</g>
<g>
	<rect x="-785.2" y="-2225.2" class="st0" width="98.4" height="98.4"/>
	<path class="st0" d="M-736-2304c-70.7,0-128,57.3-128,128s57.3,128,128,128s128-57.3,128-128S-665.3-2304-736-2304z M-666-2106
		h-140v-140h140V-2106z"/>
</g>
<g>
	<polygon class="st0" points="-498.5,-2137.5 -397.5,-2137.5 -448,-2224.9 	"/>
	<path class="st0" d="M-448-2304c-70.7,0-128,57.3-128,128s57.3,128,128,128s128-57.3,128-128S-377.3-2304-448-2304z M-538-2115.4
		l90-155.9l90,155.9H-538z"/>
</g>
<g>
	<circle class="st0" cx="-160" cy="-2176" r="70.3"/>
	<path class="st0" d="M-160-2304c-70.7,0-128,57.3-128,128s57.3,128,128,128s128-57.3,128-128S-89.3-2304-160-2304z M-160-2076
		c-55.2,0-100-44.8-100-100s44.8-100,100-100s100,44.8,100,100S-104.8-2076-160-2076z"/>
</g>
<path class="st0" d="M128-2304c-70.7,0-128,57.3-128,128s57.3,128,128,128s128-57.3,128-128S198.7-2304,128-2304z M208-2121.3
	l-25.3,25.3l-54.7-54.7L73.3-2096L48-2121.3l54.7-54.7L48-2230.7l25.3-25.3l54.7,54.7l54.7-54.7l25.3,25.3l-54.7,54.7L208-2121.3z"
	/>
<g>
	<path class="st0" d="M416-2304c-70.7,0-128,57.3-128,128s57.3,128,128,128s128-57.3,128-128S486.7-2304,416-2304z M463.7-2091
		l-18.2-53.5h-60.3l-17.7,53.5h-22.7l57.8-170h26.5l58,170H463.7z"/>
	<path class="st0" d="M415.5-2241.6H415c-2.5,10.1-5.3,20.4-8.6,30.8l-16.6,49.2H441l-16.6-48.9
		C420.5-2221.7,418-2231.7,415.5-2241.6z"/>
</g>
<g>
	<path class="st0" d="M736.7-2217.1c0-19.6-14.9-27.3-36.7-27.3c-9.9,0-15.6,0.7-19.1,1.5v53.9h19.6
		C723.3-2189,736.7-2200.9,736.7-2217.1z"/>
	<path class="st0" d="M698.7-2172.6h-17.9v63.8c4.2,0.7,10.4,1,18.1,1c22.3,0,42.9-8.2,42.9-32.5
		C741.9-2163.2,722.3-2172.6,698.7-2172.6z"/>
	<path class="st0" d="M704-2304c-70.7,0-128,57.3-128,128s57.3,128,128,128s128-57.3,128-128S774.7-2304,704-2304z M750.6-2106.6
		c-11.7,10.7-30.5,15.6-57.8,15.6c-14.9,0-26.3-1-33.5-2v-164.5c9.4-2,24.3-3.5,39.5-3.5c21.6,0,35.5,3.7,45.9,12.2
		c8.7,6.5,13.9,16.4,13.9,29.5c0,16.1-10.7,30.3-28.3,36.7v0.5c15.9,4,34.5,17.1,34.5,41.9C764.7-2125.7,759-2114.8,750.6-2106.6z"
		/>
</g>
<path class="st0" d="M992-2304c-70.7,0-128,57.3-128,128s57.3,128,128,128s128-57.3,128-128S1062.7-2304,992-2304z M1032.2-2091
	l-21.7-37.6c-8.8-14.4-14.4-23.7-19.7-33.5h-0.5c-4.8,9.8-9.6,18.9-18.4,33.8l-20.4,37.3h-25.2l52-86l-49.9-84h25.5l22.4,39.9
	c6.3,11.1,11.1,19.7,15.6,28.8h0.8c4.8-10.1,9.1-17.9,15.4-28.8l23.2-39.9h25.2l-51.7,82.7l53,87.3H1032.2z"/>
<path class="st0" d="M1280-2304c-70.7,0-128,57.3-128,128s57.3,128,128,128s128-57.3,128-128S1350.7-2304,1280-2304z M1289.5-2163.4
	v72.4h-22.2v-72.1l-53.7-97.9h25l24,46.9c6.6,12.9,11.6,23.2,16.9,35.1h0.5c4.8-11.1,10.6-22.2,17.2-35.1l24.5-46.9h25
	L1289.5-2163.4z"/>
<path class="st0" d="M-3040-2304c-70.7,0-128,57.3-128,128s57.3,128,128,128s128-57.3,128-128S-2969.3-2304-3040-2304z M-3140-2176
	l150-86.6v173.2L-3140-2176z"/>
<path class="st0" d="M-2661.5-2266.5c-50-50-131-50-181,0c-50,50-50,131,0,181c50,50,131,50,181,0
	C-2611.5-2135.5-2611.5-2216.5-2661.5-2266.5z M-2822.7-2105.3l44.8-167.3l122.5,122.5L-2822.7-2105.3z"/>
<path class="st0" d="M-2464-2304c-70.7,0-128,57.3-128,128s57.3,128,128,128s128-57.3,128-128S-2393.3-2304-2464-2304z
	 M-2464-2079.4l-86.6-150h173.2L-2464-2079.4z"/>
<path class="st0" d="M-2176-2304c-70.7,0-128,57.3-128,128s57.3,128,128,128s128-57.3,128-128S-2105.3-2304-2176-2304z
	 M-2272.6-2150.1l122.5-122.5l44.8,167.3L-2272.6-2150.1z"/>
<path class="st0" d="M-1888-2304c-70.7,0-128,57.3-128,128s57.3,128,128,128s128-57.3,128-128S-1817.3-2304-1888-2304z
	 M-1938.3-2088.9l0-173.2l150,86.6L-1938.3-2088.9z"/>
<path class="st0" d="M-1600-2304c-70.7,0-128,57.3-128,128s57.3,128,128,128s128-57.3,128-128S-1529.3-2304-1600-2304z
	 M-1574.1-2078.9l-122.5-122.5l167.3-44.8L-1574.1-2078.9z"/>
<path class="st0" d="M-1312-2304c-70.7,0-128,57.3-128,128s57.3,128,128,128s128-57.3,128-128S-1241.3-2304-1312-2304z
	 M-1398.6-2126.2l86.6-150l86.6,150H-1398.6z"/>
<path class="st0" d="M-1024-2304c-70.7,0-128,57.3-128,128s57.3,128,128,128s128-57.3,128-128S-953.3-2304-1024-2304z
	 M-1049.9-2078.9l-44.8-167.3l167.3,44.8L-1049.9-2078.9z"/>
<path class="st0" d="M-3168-2592v256h256v-256H-3168z M-2990.4-2378.1l-148.9-85.9l148.9-85.9V-2378.1z"/>
<path class="st0" d="M-2880-2592v256h256v-256H-2880z M-2822.7-2393.3l44.8-167.3l122.5,122.5L-2822.7-2393.3z"/>
<path class="st0" d="M-2592-2592v256h256v-256H-2592z M-2464-2363.6l-86.6-150h173.2L-2464-2363.6z"/>
<path class="st0" d="M-2304-2592v256h256v-256H-2304z M-2272.6-2438.1l122.5-122.5l44.8,167.3L-2272.6-2438.1z"/>
<path class="st0" d="M-2016-2592v256h256v-256H-2016z M-1938.1-2377.4v-173.2l150,86.6L-1938.1-2377.4z"/>
<path class="st0" d="M-1728-2592v256h256v-256H-1728z M-1574.4-2368.4l-121.2-121.2l165.5-44.4L-1574.4-2368.4z"/>
<path class="st0" d="M-1440-2592v256h256v-256H-1440z M-1398.6-2414l86.6-150l86.6,150H-1398.6z"/>
<path class="st0" d="M-1152-2592v256h256v-256H-1152z M-1049.9-2367.4l-44.8-167.3l167.3,44.8L-1049.9-2367.4z"/>
<g>
	<polygon class="st0" points="-3051.3,-1600 -3091.3,-1640 -3168,-1640 -3168,-1560 -3091.3,-1560 	"/>
	<polygon class="st0" points="-3040,-1611.3 -3000,-1651.3 -3000,-1728 -3080,-1728 -3080,-1651.3 	"/>
	<polygon class="st0" points="-2988.7,-1640 -3028.7,-1600 -2988.7,-1560 -2912,-1560 -2912,-1640 	"/>
	<polygon class="st0" points="-3040,-1588.7 -3080,-1548.7 -3080,-1472 -3000,-1472 -3000,-1548.7 	"/>
</g>
<polygon class="st0" points="-2763.3,-1600 -2803.3,-1640 -2880,-1640 -2880,-1560 -2803.3,-1560 "/>
<polygon class="st0" points="-2700.7,-1640 -2740.7,-1600 -2700.7,-1560 -2624,-1560 -2624,-1640 "/>
<polygon class="st0" points="-2752,-1588.7 -2792,-1548.7 -2792,-1472 -2712,-1472 -2712,-1548.7 "/>
<path class="st0" d="M-2792-1728v76.7l40,40l40-40v-76.7H-2792z M-2782-1662l30-52l30,52H-2782z"/>
<polygon class="st0" points="-2464,-1588.7 -2504,-1548.7 -2504,-1472 -2424,-1472 -2424,-1548.7 "/>
<polygon class="st0" points="-2504,-1651.3 -2464,-1611.3 -2424,-1651.3 -2424,-1728 -2504,-1728 "/>
<polygon class="st0" points="-2452.7,-1600 -2412.7,-1560 -2336,-1560 -2336,-1640 -2412.7,-1640 "/>
<path class="st0" d="M-2592-1560h76.7l40-40l-40-40h-76.7V-1560z M-2526-1570l-52-30l52-30V-1570z"/>
<polygon class="st0" points="-2164.7,-1600 -2124.7,-1560 -2048,-1560 -2048,-1640 -2124.7,-1640 "/>
<polygon class="st0" points="-2227.3,-1560 -2187.3,-1600 -2227.3,-1640 -2304,-1640 -2304,-1560 "/>
<polygon class="st0" points="-2176,-1611.3 -2136,-1651.3 -2136,-1728 -2216,-1728 -2216,-1651.3 "/>
<path class="st0" d="M-2136-1472v-76.7l-40-40l-40,40v76.7H-2136z M-2146-1538l-30,52l-30-52H-2146z"/>
<polygon class="st0" points="-1888,-1611.3 -1848,-1651.3 -1848,-1728 -1928,-1728 -1928,-1651.3 "/>
<polygon class="st0" points="-1848,-1548.7 -1888,-1588.7 -1928,-1548.7 -1928,-1472 -1848,-1472 "/>
<polygon class="st0" points="-1899.3,-1600 -1939.3,-1640 -2016,-1640 -2016,-1560 -1939.3,-1560 "/>
<path class="st0" d="M-1760-1640h-76.7l-40,40l40,40h76.7V-1640z M-1826-1630l52,30l-52,30V-1630z"/>
<path class="st0" d="M-1640-1728v76.7l40,40l40-40v-76.7H-1640z M-1630-1662l30-52l30,52H-1630z"/>
<polygon class="st0" points="-1588.7,-1600 -1548.7,-1560 -1472,-1560 -1472,-1640 -1548.7,-1640 "/>
<polygon class="st0" points="-1651.3,-1560 -1611.3,-1600 -1651.3,-1640 -1728,-1640 -1728,-1560 "/>
<path class="st0" d="M-1560-1472v-76.7l-40-40l-40,40v76.7H-1560z M-1570-1538l-30,52l-30-52H-1570z"/>
<path class="st0" d="M-1184-1640h-76.7l-40,40l40,40h76.7V-1640z M-1250-1630l52,30l-52,30V-1630z"/>
<polygon class="st0" points="-1312,-1588.7 -1352,-1548.7 -1352,-1472 -1272,-1472 -1272,-1548.7 "/>
<polygon class="st0" points="-1352,-1651.3 -1312,-1611.3 -1272,-1651.3 -1272,-1728 -1352,-1728 "/>
<path class="st0" d="M-1440-1560h76.7l40-40l-40-40h-76.7V-1560z M-1374-1570l-52-30l52-30V-1570z"/>
<path class="st0" d="M-1064-1728v76.7l40,40l40-40v-76.7H-1064z M-1054-1662l30-52l30,52H-1054z"/>
<path class="st0" d="M-984-1472v-76.7l-40-40l-40,40v76.7H-984z M-994-1538l-30,52l-30-52H-994z"/>
<path class="st0" d="M-896-1640l-76.7,0l-40,40l40,40l76.7,0V-1640z M-962-1630l52,30l-52,30V-1630z"/>
<path class="st0" d="M-1152-1560h76.7l40-40l-40-40h-76.7V-1560z M-1086-1570l-52-30l52-30V-1570z"/>
<path class="st0" d="M-608-1640h-76.7l-40,40l40,40h76.7V-1640z M-674-1630l52,30l-52,30V-1630z"/>
<polygon class="st0" points="-787.3,-1560 -747.3,-1600 -787.3,-1640 -864,-1640 -864,-1560 "/>
<polygon class="st0" points="-736,-1611.3 -696,-1651.3 -696,-1728 -776,-1728 -776,-1651.3 "/>
<path class="st0" d="M-696-1472v-76.7l-40-40l-40,40v76.7H-696z M-706-1538l-30,52l-30-52H-706z"/>
<path class="st0" d="M-488-1728v76.7l40,40l40-40v-76.7H-488z M-478-1662l30-52l30,52H-478z"/>
<polygon class="st0" points="-408,-1548.7 -448,-1588.7 -488,-1548.7 -488,-1472 -408,-1472 "/>
<polygon class="st0" points="-459.3,-1600 -499.3,-1640 -576,-1640 -576,-1560 -499.3,-1560 "/>
<path class="st0" d="M-320-1640h-76.7l-40,40l40,40h76.7V-1640z M-386-1630l52,30l-52,30V-1630z"/>
<path class="st0" d="M-288-1560h76.7l40-40l-40-40H-288V-1560z M-222-1570l-52-30l52-30V-1570z"/>
<polygon class="st0" points="-108.7,-1640 -148.7,-1600 -108.7,-1560 -32,-1560 -32,-1640 "/>
<polygon class="st0" points="-160,-1588.7 -200,-1548.7 -200,-1472 -120,-1472 -120,-1548.7 "/>
<path class="st0" d="M-200-1728v76.7l40,40l40-40v-76.7H-200z M-190-1662l30-52l30,52H-190z"/>
<path class="st0" d="M168-1472v-76.7l-40-40l-40,40v76.7H168z M158-1538l-30,52l-30-52H158z"/>
<polygon class="st0" points="88,-1651.3 128,-1611.3 168,-1651.3 168,-1728 88,-1728 "/>
<polygon class="st0" points="139.3,-1600 179.3,-1560 256,-1560 256,-1640 179.3,-1640 "/>
<path class="st0" d="M0-1560h76.7l40-40l-40-40H0L0-1560z M66-1570l-52-30l52-30V-1570z"/>
<path class="st0" d="M288-1560h76.7l40-40l-40-40H288V-1560z M354-1570l-52-30l52-30V-1570z"/>
<polygon class="st0" points="467.3,-1640 427.3,-1600 467.3,-1560 544,-1560 544,-1640 "/>
<path class="st0" d="M376-1728v76.7l40,40l40-40v-76.7H376z M386-1662l30-52l30,52H386z"/>
<path class="st0" d="M456-1472v-76.7l-40-40l-40,40v76.7H456z M446-1538l-30,52l-30-52H446z"/>
<path class="st0" d="M832-1640h-76.7l-40,40l40,40H832V-1640z M766-1630l52,30l-52,30V-1630z"/>
<polygon class="st0" points="652.7,-1560 692.7,-1600 652.7,-1640 576,-1640 576,-1560 "/>
<path class="st0" d="M744-1472v-76.7l-40-40l-40,40v76.7H744z M734-1538l-30,52l-30-52H734z"/>
<path class="st0" d="M664-1728v76.7l40,40l40-40v-76.7H664z M674-1662l30-52l30,52H674z"/>
<path class="st0" d="M1032-1472v-76.7l-40-40l-40,40v76.7H1032z M1022-1538l-30,52l-30-52H1022z"/>
<polygon class="st0" points="952,-1651.3 992,-1611.3 1032,-1651.3 1032,-1728 952,-1728 "/>
<path class="st0" d="M864-1560h76.7l40-40l-40-40H864V-1560z M930-1570l-52-30l52-30V-1570z"/>
<path class="st0" d="M1120-1640h-76.7l-40,40l40,40h76.7V-1640z M1054-1630l52,30l-52,30V-1630z"/>
<path class="st0" d="M1240-1728v76.7l40,40l40-40v-76.7H1240z M1250-1662l30-52l30,52H1250z"/>
<polygon class="st0" points="1320,-1548.7 1280,-1588.7 1240,-1548.7 1240,-1472 1320,-1472 "/>
<path class="st0" d="M1408-1640h-76.7l-40,40l40,40h76.7V-1640z M1342-1630l52,30l-52,30V-1630z"/>
<path class="st0" d="M1152-1560h76.7l40-40l-40-40H1152V-1560z M1218-1570l-52-30l52-30V-1570z"/>
<text transform="matrix(1 0 0 1 1447.844 -2106.4399)" class="st0" style="font-family:'MyriadPro-Regular'; font-size:237px;">LB</text>
<text transform="matrix(1 0 0 1 1728.0212 -2106.4399)" class="st0" style="font-family:'MyriadPro-Regular'; font-size:237px;">RB</text>
<text transform="matrix(1 0 0 1 1463.4866 -1818.4401)" class="st0" style="font-family:'MyriadPro-Regular'; font-size:237px;">LT</text>
<text transform="matrix(1 0 0 1 1732.1716 -1818.4399)" class="st0" style="font-family:'MyriadPro-Regular'; font-size:237px;">RT</text>
<text transform="matrix(1 0 0 1 1512.0695 -1530.4402)" class="st0" style="font-family:'MyriadPro-Regular'; font-size:237px;">L</text>
<text transform="matrix(1 0 0 1 1792.2472 -1530.4399)" class="st0" style="font-family:'MyriadPro-Regular'; font-size:237px;">R</text>
<g>
	<path class="st0" d="M1647.5-1351.2c0-18.7-14.2-26.1-35.1-26.1c-9.5,0-14.9,0.7-18.2,1.4v51.4h18.7
		C1634.7-1324.4,1647.5-1335.8,1647.5-1351.2z"/>
	<path class="st0" d="M1611.3-1308.8h-17.1v60.9c4,0.7,10,0.9,17.3,0.9c21.3,0,41-7.8,41-31
		C1652.5-1299.8,1633.8-1308.8,1611.3-1308.8z"/>
	<path class="st0" d="M1440-1440v256h256v-256H1440z M1550.6-1232.2h-88.9V-1392h20.6v142.4h68.3V-1232.2z M1660.8-1245.8
		c-11.1,10.2-29.2,14.9-55.2,14.9c-14.2,0-25.1-0.9-32-1.9v-157.1c9-1.9,23.2-3.3,37.7-3.3c20.6,0,33.9,3.6,43.8,11.6
		c8.3,6.2,13.3,15.6,13.3,28.2c0,15.4-10.2,28.9-27,35.1v0.5c15.2,3.8,32.9,16.4,32.9,40.1C1674.3-1264,1668.8-1253.6,1660.8-1245.8
		z"/>
</g>
<path class="st0" d="M1440-1152v256h256v-256H1440z M1561.4-944.1h-88.9v-159.7h20.6v142.4h68.3V-944.1z M1663.5-1086.3h-48.8v142.2
	h-20.9v-142.2h-48.6v-17.5h118.3V-1086.3z"/>
<path class="st0" d="M1568-864c-70.7,0-128,57.3-128,128s57.3,128,128,128s128-57.3,128-128S1638.7-864,1568-864z M1612.4-656.1
	h-88.9v-159.7h20.6v142.4h68.3V-656.1z"/>
<g>
	<path class="st0" d="M1856-864c-70.7,0-128,57.3-128,128s57.3,128,128,128s128-57.3,128-128S1926.7-864,1856-864z M1886.7-655.5
		c-2.6-4.5-6.2-18.2-10.7-38.2c-4.7-22-13.3-30.3-32-31h-19.4v69.2H1804v-157.6c10.4-2.1,25.4-3.3,39.6-3.3c22,0,36.3,4,46.2,13
		c8.1,7.1,12.6,18,12.6,30.3c0,21.1-13.3,35.1-30.1,40.8v0.7c12.3,4.3,19.7,15.6,23.5,32.2c5.2,22.3,9,37.7,12.3,43.8H1886.7z"/>
	<path class="st0" d="M1881.7-770.7c0-20.6-14.9-29.6-36.7-29.9c-10,0-17.1,0.9-20.4,1.9v58.3h21.1
		C1867.7-740.4,1881.7-752.5,1881.7-770.7z"/>
</g>
<g>
	<path class="st0" d="M1818.9-1058.7c0-20.6-14.9-29.6-36.7-29.9c-10,0-17.1,0.9-20.4,1.9v58.3h21.1
		C1804.9-1028.4,1818.9-1040.5,1818.9-1058.7z"/>
	<path class="st0" d="M1728-1152v256h256v-256H1728z M1823.9-943.5c-2.6-4.5-6.2-18.2-10.7-38.2c-4.7-22-13.3-30.3-32-31h-19.4v69.2
		h-20.6v-157.6c10.4-2.1,25.4-3.3,39.6-3.3c22,0,36.3,4,46.2,13c8.1,7.1,12.6,18,12.6,30.3c0,21.1-13.3,35.1-30.1,40.8v0.7
		c12.3,4.3,19.7,15.6,23.5,32.2c5.2,22.3,9,37.7,12.3,43.8H1823.9z M1970.8-1085.7H1922v142.2h-20.9v-142.2h-48.6v-17.5h118.3
		V-1085.7z"/>
</g>
<g>
	<path class="st0" d="M1907.1-1308.8H1890v60.9c4,0.7,10,0.9,17.3,0.9c21.3,0,41-7.8,41-31
		C1948.3-1299.8,1929.6-1308.8,1907.1-1308.8z"/>
	<path class="st0" d="M1943.3-1351.2c0-18.7-14.2-26.1-35.1-26.1c-9.5,0-14.9,0.7-18.2,1.4v51.4h18.7
		C1930.5-1324.4,1943.3-1335.8,1943.3-1351.2z"/>
	<path class="st0" d="M1728-1440v256h256v-256H1728z M1824.6-1232.2c-2.6-4.5-6.2-18.2-10.7-38.2c-4.7-22-13.3-30.3-32-31h-19.4
		v69.2h-20.6v-157.6c10.4-2.1,25.4-3.3,39.6-3.3c22,0,36.3,4,46.2,13c8.1,7.1,12.6,18,12.6,30.3c0,21.1-13.3,35.1-30.1,40.8v0.7
		c12.3,4.3,19.7,15.6,23.5,32.2c5.2,22.3,9,37.7,12.3,43.8H1824.6z M1956.6-1245.8c-11.1,10.2-29.2,14.9-55.2,14.9
		c-14.2,0-25.1-0.9-32-1.9v-157.1c9-1.9,23.2-3.3,37.7-3.3c20.6,0,33.9,3.6,43.8,11.6c8.3,6.2,13.3,15.6,13.3,28.2
		c0,15.4-10.2,28.9-27,35.1v0.5c15.2,3.8,32.9,16.4,32.9,40.1C1970.1-1264,1964.7-1253.6,1956.6-1245.8z"/>
	<path class="st0" d="M1819.6-1347.4c0-20.6-14.9-29.6-36.7-29.9c-10,0-17.1,0.9-20.4,1.9v58.3h21.1
		C1805.6-1317.1,1819.6-1329.2,1819.6-1347.4z"/>
</g>
<polygon class="st0" points="-3040,-2818.5 -3040,-2818.5 -3155.2,-2752 -3040,-2685.5 -2924.8,-2685.5 -2924.8,-2818.5 "/>
<polygon class="st0" points="-2799,-2799 -2799,-2799 -2833.5,-2670.5 -2705,-2705 -2623.5,-2786.4 -2717.6,-2880.5 "/>
<polygon class="st0" points="-2530.5,-2752 -2530.5,-2752 -2464,-2636.8 -2397.5,-2752 -2397.5,-2867.2 -2530.5,-2867.2 "/>
<polygon class="st0" points="-2223,-2705 -2223,-2705 -2094.5,-2670.5 -2129,-2799 -2210.4,-2880.5 -2304.5,-2786.4 "/>
<polygon class="st0" points="-1888,-2685.5 -1888,-2685.5 -1772.8,-2752 -1888,-2818.5 -2003.2,-2818.5 -2003.2,-2685.5 "/>
<polygon class="st0" points="-1553,-2705 -1553,-2705 -1518.5,-2833.5 -1647,-2799 -1728.5,-2717.6 -1634.4,-2623.5 "/>
<polygon class="st0" points="-1245.5,-2752 -1245.5,-2752 -1312,-2867.2 -1378.5,-2752 -1378.5,-2636.8 -1245.5,-2636.8 "/>
<polygon class="st0" points="-977,-2799 -977,-2799 -1105.5,-2833.5 -1071,-2705 -989.6,-2623.5 -895.5,-2717.6 "/>
<polygon class="st0" points="404.5,-3971.1 355.7,-3942.9 288,-3942.9 288,-3864.6 355.9,-3864.6 404.5,-3836.5 "/>
<path class="st0" d="M521.4-3903.8c0,42.3-15,81.1-40,111.4l19.8,11.5c26.8-33.7,42.8-76.4,42.8-122.8c0-46.6-16.1-89.4-43.1-123.2
	l-19.9,11.5C506.2-3985.2,521.4-3946.3,521.4-3903.8z"/>
<path class="st0" d="M481.7-3903.8c0,35.1-13.4,67.1-35.3,91.1l18.3,10.6c23.5-27.3,37.7-62.8,37.7-101.7c0-39-14.3-74.7-38-102.1
	l-18.3,10.6C468.1-3971.2,481.7-3939.1,481.7-3903.8z"/>
<path class="st0" d="M411.9-3975.6c19.5,17.8,31.7,43.4,31.7,71.8c0,28.3-12,53.7-31.3,71.5l19.4,11.2
	c20.7-21.4,33.5-50.5,33.5-82.7c0-32.3-12.9-61.6-33.8-83.1l-11.2,6.5L411.9-3975.6z"/>
<polygon class="st0" points="116.5,-3971.1 67.7,-3942.9 0,-3942.9 0,-3864.6 67.9,-3864.6 116.5,-3836.5 "/>
<path class="st0" d="M193.7-3903.8c0,35.1-13.4,67.1-35.3,91.1l18.3,10.6c23.5-27.3,37.7-62.8,37.7-101.7c0-39-14.3-74.7-38-102.1
	l-18.3,10.6C180.1-3971.2,193.7-3939.1,193.7-3903.8z"/>
<path class="st0" d="M123.9-3975.6c19.5,17.8,31.7,43.4,31.7,71.8c0,28.3-12,53.7-31.3,71.5l19.4,11.2
	c20.7-21.4,33.5-50.5,33.5-82.7c0-32.3-12.9-61.6-33.8-83.1l-11.2,6.5L123.9-3975.6z"/>
<polygon class="st0" points="-171.5,-3971.1 -220.3,-3942.9 -288,-3942.9 -288,-3864.6 -220.1,-3864.6 -171.5,-3836.5 "/>
<path class="st0" d="M-164.1-3975.6c19.5,17.8,31.7,43.4,31.7,71.8c0,28.3-12,53.7-31.3,71.5l19.4,11.2
	c20.7-21.4,33.5-50.5,33.5-82.7c0-32.3-12.9-61.6-33.8-83.1l-11.2,6.5L-164.1-3975.6z"/>
<polygon class="st0" points="-459.5,-3971.1 -508.3,-3942.9 -576,-3942.9 -576,-3864.6 -508.1,-3864.6 -459.5,-3836.5 "/>
<polygon class="st0" points="-747.5,-3971.1 -796.3,-3942.9 -864,-3942.9 -864,-3864.6 -796.1,-3864.6 -747.5,-3836.5 "/>
<polygon class="st0" points="-661.3,-3928.6 -672.7,-3940 -697.3,-3915.4 -722,-3940 -733.3,-3928.6 -708.7,-3904 -733.3,-3879.4 
	-722,-3868 -697.3,-3892.6 -672.7,-3868 -661.3,-3879.4 -686,-3904 "/>
<circle class="st0" cx="416" cy="-3520" r="32"/>
<path class="st0" d="M416-3586.6c14.2,0,27.4,4.5,38.2,12.1l15.8-22.6c-15.3-10.7-33.9-17-54-17s-38.7,6.3-54,17l15.8,22.6
	C388.6-3582.1,401.8-3586.6,416-3586.6z"/>
<path class="st0" d="M416-3643.9c26.5,0,51,8.3,71.1,22.4l18.6-26.6c-25.4-17.8-56.3-28.3-89.7-28.3s-64.3,10.5-89.7,28.3l18.6,26.6
	C365-3635.6,389.5-3643.9,416-3643.9z"/>
<path class="st0" d="M416-3703.9c39.3,0,75.7,12.3,105.5,33.3l22.4-32c-36.2-25.4-80.4-40.4-128-40.4c-47.6,0-91.8,14.9-128,40.4
	l22.4,32C340.3-3691.6,376.7-3703.9,416-3703.9z"/>
<circle class="st0" cx="128" cy="-3520.5" r="32"/>
<path class="st0" d="M128-3587.1c14.2,0,27.4,4.5,38.2,12.1l15.8-22.6c-15.3-10.7-33.9-17-54-17s-38.7,6.3-54,17l15.8,22.6
	C100.6-3582.6,113.8-3587.1,128-3587.1z"/>
<path class="st0" d="M128-3644.4c26.5,0,51,8.3,71.1,22.4l18.6-26.6c-25.4-17.8-56.3-28.3-89.7-28.3s-64.3,10.5-89.7,28.3l18.6,26.6
	C77-3636.1,101.5-3644.4,128-3644.4z"/>
<circle class="st0" cx="-160" cy="-3520.5" r="32"/>
<path class="st0" d="M-160-3587.1c14.2,0,27.4,4.5,38.2,12.1l15.8-22.6c-15.3-10.7-33.9-17-54-17s-38.7,6.3-54,17l15.8,22.6
	C-187.4-3582.6-174.2-3587.1-160-3587.1z"/>
<circle class="st0" cx="-448" cy="-3520.8" r="32"/>
<circle class="st0" cx="-736" cy="-3520.5" r="32"/>
<circle class="st0" cx="704" cy="-3520.5" r="32"/>
<path class="st0" d="M704-3644.4c26.5,0,51,8.3,71.1,22.4l18.6-26.6c-25.4-17.8-56.3-28.3-89.7-28.3s-64.3,10.5-89.7,28.3l18.6,26.6
	C653-3636.1,677.5-3644.4,704-3644.4z"/>
<path class="st0" d="M704-3704.4c39.3,0,75.7,12.3,105.5,33.3l22.4-32c-36.2-25.4-80.4-40.4-128-40.4c-47.6,0-91.8,14.9-128,40.4
	l22.4,32C628.3-3692.1,664.7-3704.4,704-3704.4z"/>
<circle class="st0" cx="992" cy="-3520.5" r="32"/>
<path class="st0" d="M992-3587.1c14.2,0,27.4,4.5,38.2,12.1l15.8-22.6c-15.3-10.7-33.9-17-54-17s-38.7,6.3-54,17l15.8,22.6
	C964.6-3582.6,977.8-3587.1,992-3587.1z"/>
<path class="st0" d="M992-3704.4c39.3,0,75.7,12.3,105.5,33.3l22.4-32c-36.2-25.4-80.4-40.4-128-40.4c-47.6,0-91.8,14.9-128,40.4
	l22.4,32C916.3-3692.1,952.7-3704.4,992-3704.4z"/>
<polygon class="st0" points="-700,-3627.4 -711.4,-3638.8 -736,-3614.1 -760.6,-3638.8 -772,-3627.4 -747.4,-3602.8 -772,-3578.1 
	-760.6,-3566.8 -736,-3591.4 -711.4,-3566.8 -700,-3578.1 -724.6,-3602.8 "/>
<polygon class="st0" points="692.5,-3971.1 643.7,-3942.9 576,-3942.9 576,-3864.6 643.9,-3864.6 692.5,-3836.5 "/>
<path class="st0" d="M809.4-3903.8c0,42.3-15,81.1-40,111.4l19.8,11.5c26.8-33.7,42.8-76.4,42.8-122.8c0-46.6-16.1-89.4-43.1-123.2
	l-19.9,11.5C794.2-3985.2,809.4-3946.3,809.4-3903.8z"/>
<path class="st0" d="M769.7-3903.8c0,35.1-13.4,67.1-35.3,91.1l18.3,10.6c23.5-27.3,37.7-62.8,37.7-101.7c0-39-14.3-74.7-38-102.1
	l-18.3,10.6C756.1-3971.2,769.7-3939.1,769.7-3903.8z"/>
<polygon class="st0" points="980.5,-3971.1 931.7,-3942.9 864,-3942.9 864,-3864.6 931.9,-3864.6 980.5,-3836.5 "/>
<path class="st0" d="M1097.4-3903.8c0,42.3-15,81.1-40,111.4l19.8,11.5c26.8-33.7,42.8-76.4,42.8-122.8c0-46.6-16.1-89.4-43.1-123.2
	l-19.9,11.5C1082.2-3985.2,1097.4-3946.3,1097.4-3903.8z"/>
<path class="st0" d="M987.9-3975.6c19.5,17.8,31.7,43.4,31.7,71.8c0,28.3-12,53.7-31.3,71.5l19.4,11.2
	c20.7-21.4,33.5-50.5,33.5-82.7c0-32.3-12.9-61.6-33.8-83.1l-11.2,6.5L987.9-3975.6z"/>
<path class="st0" d="M-360.7-3365.2v-25H-576v124.3h215.3v-25h40.7v-74.3H-360.7z M-335.7-3304.6h-42.7v24.8h-181v-96.3h181v24.8
	h42.7V-3304.6z"/>
<rect x="-765.8" y="-3437.3" transform="matrix(0.9063 -0.4226 0.4226 0.9063 1335.0935 -628.4514)" class="st0" width="32" height="224"/>
<polygon class="st0" points="-648.7,-3365.2 -648.7,-3390.2 -753.9,-3390.2 -747.3,-3376.2 -666.3,-3376.2 -666.3,-3351.4 
	-623.7,-3351.4 -623.7,-3304.6 -666.3,-3304.6 -666.3,-3279.8 -702.4,-3279.8 -695.9,-3265.8 -648.7,-3265.8 -648.7,-3290.8 
	-608,-3290.8 -608,-3365.2 "/>
<polygon class="st0" points="-847.3,-3279.8 -847.3,-3376.2 -799.8,-3376.2 -806.3,-3390.2 -864,-3390.2 -864,-3265.8 
	-748.3,-3265.8 -754.8,-3279.8 "/>
<path class="st0" d="M-72.7-3365.2v-25H-288v124.3h215.3v-25H-32v-74.3H-72.7z M-47.7-3304.6h-42.7v24.8h-181v-96.3h181v24.8h42.7
	V-3304.6z"/>
<path class="st0" d="M215.3-3365.2v-25H0v124.3h215.3v-25H256v-74.3H215.3z M240.3-3304.6h-42.7v24.8h-181v-96.3h181v24.8h42.7
	V-3304.6z"/>
<path class="st0" d="M503.3-3365.2v-25H288v124.3h215.3v-25H544v-74.3H503.3z M528.3-3304.6h-42.7v24.8h-181v-96.3h181v24.8h42.7
	V-3304.6z"/>
<path class="st0" d="M791.3-3365.2v-25H576v124.3h215.3v-25H832v-74.3H791.3z M816.3-3304.6h-42.7v24.8h-181v-96.3h181v24.8h42.7
	V-3304.6z"/>
<path class="st0" d="M1079.3-3365.2v-25H864v124.3h215.3v-25h40.7v-74.3H1079.3z M1104.3-3304.6h-42.7v24.8h-181v-96.3h181v24.8
	h42.7V-3304.6z"/>
<polygon class="st0" points="1093.7,-3341.3 1049.5,-3341.3 1049.5,-3364.8 892.3,-3364.8 892.3,-3291.2 1049.5,-3291.2 
	1049.5,-3314.7 1093.7,-3314.7 "/>
<path class="st0" d="M1079.3-3077.2v-25H864v124.3h215.3v-25h40.7v-74.3H1079.3z M1104.3-3016.6h-42.7v24.8h-181v-96.3h181v24.8
	h42.7V-3016.6z"/>
<rect x="954" y="-3076.8" class="st0" width="30" height="73.7"/>
<rect x="994" y="-3076.8" class="st0" width="30" height="73.7"/>
<rect x="892.3" y="-3076.8" class="st0" width="11.7" height="73.7"/>
<rect x="914" y="-3076.8" class="st0" width="30" height="73.7"/>
<rect x="1074" y="-3053.3" class="st0" width="19.7" height="26.7"/>
<polygon class="st0" points="1049.5,-3053.3 1049.5,-3076.8 1034,-3076.8 1034,-3003.2 1049.5,-3003.2 1049.5,-3026.7 1064,-3026.7 
	1064,-3053.3 "/>
<path class="st0" d="M791.3-3077.2v-25H576v124.3h215.3v-25H832v-74.3H791.3z M816.3-3016.6h-42.7v24.8h-181v-96.3h181v24.8h42.7
	V-3016.6z"/>
<rect x="666" y="-3076.8" class="st0" width="30" height="73.7"/>
<rect x="706" y="-3076.8" class="st0" width="30" height="73.7"/>
<rect x="604.3" y="-3076.8" class="st0" width="11.7" height="73.7"/>
<rect x="626" y="-3076.8" class="st0" width="30" height="73.7"/>
<polygon class="st0" points="761.5,-3053.3 761.5,-3076.8 746,-3076.8 746,-3003.2 761.5,-3003.2 761.5,-3026.7 776,-3026.7 
	776,-3053.3 "/>
<path class="st0" d="M503.3-3077.2v-25H288v124.3h215.3v-25H544v-74.3H503.3z M528.3-3016.6h-42.7v24.8h-181v-96.3h181v24.8h42.7
	V-3016.6z"/>
<rect x="378" y="-3076.8" class="st0" width="30" height="73.7"/>
<rect x="418" y="-3076.8" class="st0" width="30" height="73.7"/>
<rect x="316.3" y="-3076.8" class="st0" width="11.7" height="73.7"/>
<rect x="338" y="-3076.8" class="st0" width="30" height="73.7"/>
<path class="st0" d="M215.3-3077.2v-25H0v124.3h215.3v-25H256v-74.3H215.3z M240.3-3016.6h-42.7v24.8h-181v-96.3h181v24.8h42.7
	V-3016.6z"/>
<rect x="90" y="-3076.8" class="st0" width="30" height="73.7"/>
<rect x="28.3" y="-3076.8" class="st0" width="11.7" height="73.7"/>
<rect x="50" y="-3076.8" class="st0" width="30" height="73.7"/>
<path class="st0" d="M-72.7-3077.2v-25H-288v124.3h215.3v-25H-32v-74.3H-72.7z M-47.7-3016.6h-42.7v24.8h-181v-96.3h181v24.8h42.7
	V-3016.6z"/>
<rect x="-259.7" y="-3076.8" class="st0" width="11.7" height="73.7"/>
<rect x="-238" y="-3076.8" class="st0" width="30" height="73.7"/>
<path class="st0" d="M-360.7-3077.2v-25H-576v124.3h215.3v-25h40.7v-74.3H-360.7z M-335.7-3016.6h-42.7v24.8h-181v-96.3h181v24.8
	h42.7V-3016.6z"/>
<rect x="-547.7" y="-3076.8" class="st0" width="11.7" height="73.7"/>
<polygon class="st0" points="-648.7,-3077.2 -648.7,-3102.2 -753.9,-3102.2 -747.3,-3088.2 -666.3,-3088.2 -666.3,-3063.4 
	-623.7,-3063.4 -623.7,-3016.6 -666.3,-3016.6 -666.3,-2991.8 -702.4,-2991.8 -695.9,-2977.8 -648.7,-2977.8 -648.7,-3002.8 
	-608,-3002.8 -608,-3077.2 "/>
<polygon class="st0" points="-847.3,-2991.8 -847.3,-3088.2 -799.8,-3088.2 -806.3,-3102.2 -864,-3102.2 -864,-2977.8 
	-748.3,-2977.8 -754.8,-2991.8 "/>
<rect x="-765.8" y="-2861.3" transform="matrix(0.9063 -0.4226 0.4226 0.9063 1091.6653 -574.4847)" class="st0" width="32" height="224"/>
<polygon class="st0" points="1381.7,-3341.3 1337.5,-3341.3 1337.5,-3364.8 1180.3,-3364.8 1180.3,-3291.2 1337.5,-3291.2 
	1337.5,-3314.7 1381.7,-3314.7 "/>
<rect x="1242" y="-3076.8" class="st0" width="30" height="73.7"/>
<rect x="1282" y="-3076.8" class="st0" width="30" height="73.7"/>
<rect x="1180.3" y="-3076.8" class="st0" width="11.7" height="73.7"/>
<rect x="1202" y="-3076.8" class="st0" width="30" height="73.7"/>
<rect x="1362" y="-3053.3" class="st0" width="19.7" height="26.7"/>
<polygon class="st0" points="1337.5,-3053.3 1337.5,-3076.8 1322,-3076.8 1322,-3003.2 1337.5,-3003.2 1337.5,-3026.7 1352,-3026.7 
	1352,-3053.3 "/>
<polygon class="st0" points="776,-3341.3 761.5,-3341.3 761.5,-3364.8 604.3,-3364.8 604.3,-3291.2 761.5,-3291.2 761.5,-3314.7 
	776,-3314.7 "/>
<rect x="317.3" y="-3364.8" class="st0" width="130.7" height="73.7"/>
<rect x="26.3" y="-3362.7" class="st0" width="93.7" height="73.7"/>
<rect x="-260.2" y="-3364.8" class="st0" width="52.2" height="73.7"/>
<path class="st0" d="M-400-2832h-96c-44.2,0-80,35.8-80,80c0,44.2,35.8,80,80,80h96c44.2,0,80-35.8,80-80
	C-320-2796.2-355.8-2832-400-2832z M-405.6-2686h-84.8c-39,0-70.7-29.5-70.7-66c0-36.5,31.6-66,70.7-66h84.8c39,0,70.7,29.5,70.7,66
	C-334.9-2715.5-366.6-2686-405.6-2686z"/>
<circle class="st0" cx="-159.5" cy="-2752" r="57.2"/>
<circle class="st0" cx="171" cy="-2752" r="57.2"/>
<circle class="st0" cx="372" cy="-2752" r="57.2"/>
<path class="st0" d="M752-2832h-96c-44.2,0-80,35.8-80,80c0,44.2,35.8,80,80,80h96c44.2,0,80-35.8,80-80
	C832-2796.2,796.2-2832,752-2832z M746.4-2686h-84.8c-39,0-70.7-29.5-70.7-66c0-36.5,31.6-66,70.7-66h84.8c39,0,70.7,29.5,70.7,66
	C817.1-2715.5,785.4-2686,746.4-2686z"/>
<circle class="st0" cx="747" cy="-2752" r="57.2"/>
<path class="st0" d="M1040-2832h-96c-44.2,0-80,35.8-80,80c0,44.2,35.8,80,80,80h96c44.2,0,80-35.8,80-80
	C1120-2796.2,1084.2-2832,1040-2832z M1034.4-2686h-84.8c-39,0-70.7-29.5-70.7-66c0-36.5,31.6-66,70.7-66h84.8
	c39,0,70.7,29.5,70.7,66C1105.1-2715.5,1073.4-2686,1034.4-2686z"/>
<circle class="st0" cx="948" cy="-2752" r="57.2"/>
<path class="st0" d="M1328-2832h-96c-44.2,0-80,35.8-80,80c0,44.2,35.8,80,80,80h96c44.2,0,80-35.8,80-80
	C1408-2796.2,1372.2-2832,1328-2832z M1322.4-2686h-84.8c-39,0-70.7-29.5-70.7-66c0-36.5,31.6-66,70.7-66h84.8
	c39,0,70.7,29.5,70.7,66C1393.1-2715.5,1361.4-2686,1322.4-2686z"/>
<circle class="st0" cx="1280" cy="-2752" r="57.2"/>
<polygon class="st0" points="1408,-3932 1308,-3932 1308,-4032 1252,-4032 1252,-3932 1152,-3932 1152,-3876 1252,-3876 1252,-3776 
	1308,-3776 1308,-3876 1408,-3876 "/>
<polygon class="st0" points="-2089,660 -2132,660 -2132,617 -2156,617 -2156,660 -2199,660 -2199,684 -2156,684 -2156,727 
	-2132,727 -2132,684 -2089,684 "/>
<rect x="1252" y="-3744" transform="matrix(6.123234e-17 -1 1 6.123234e-17 4896 -2336)" class="st0" width="56" height="256"/>
<rect x="-1868" y="617" transform="matrix(6.123234e-17 -1 1 6.123234e-17 -2527.9998 -1184.0001)" class="st0" width="24.1" height="110"/>
<linearGradient id="SVGID_1_" gradientUnits="userSpaceOnUse" x1="1216" y1="-1312" x2="1344" y2="-1312">
	<stop  offset="0" style="stop-color:#FFFFFF"/>
	<stop  offset="1" style="stop-color:#FFFFFF;stop-opacity:0"/>
</linearGradient>
<rect x="1216" y="-1314" class="st1" width="128" height="4"/>
<linearGradient id="SVGID_00000118395127940611503460000012386381282526901380_" gradientUnits="userSpaceOnUse" x1="1280" y1="-960" x2="1280" y2="-1088">
	<stop  offset="0" style="stop-color:#FFFFFF"/>
	<stop  offset="1" style="stop-color:#FFFFFF;stop-opacity:0"/>
</linearGradient>
<rect x="1278" y="-1088" style="fill:url(#SVGID_00000118395127940611503460000012386381282526901380_);" width="4" height="128"/>
<linearGradient id="SVGID_00000049215578763823823910000010044192642136945563_" gradientUnits="userSpaceOnUse" x1="1344" y1="-736" x2="1216" y2="-736">
	<stop  offset="0" style="stop-color:#FFFFFF"/>
	<stop  offset="1" style="stop-color:#FFFFFF;stop-opacity:0"/>
</linearGradient>
<rect x="1216" y="-738" style="fill:url(#SVGID_00000049215578763823823910000010044192642136945563_);" width="128" height="4"/>
<linearGradient id="SVGID_00000169535989859304378080000003650789538025952439_" gradientUnits="userSpaceOnUse" x1="1280" y1="-512" x2="1280" y2="-384">
	<stop  offset="0" style="stop-color:#FFFFFF"/>
	<stop  offset="1" style="stop-color:#FFFFFF;stop-opacity:0"/>
</linearGradient>
<rect x="1278" y="-512" style="fill:url(#SVGID_00000169535989859304378080000003650789538025952439_);" width="4" height="128"/>
<radialGradient id="SVGID_00000072276957831754651600000003214870128214025381_" cx="704" cy="-1312" r="128" gradientUnits="userSpaceOnUse">
	<stop  offset="0" style="stop-color:#FFFFFF"/>
	<stop  offset="1" style="stop-color:#FFFFFF;stop-opacity:0"/>
</radialGradient>
<circle style="fill:url(#SVGID_00000072276957831754651600000003214870128214025381_);" cx="704" cy="-1312" r="128"/>
<radialGradient id="SVGID_00000145036430705517302550000002015588267432953773_" cx="992" cy="-512" r="128" fx="991.8138" fy="-512.0286" gradientUnits="userSpaceOnUse">
	<stop  offset="0" style="stop-color:#FFFFFF"/>
	<stop  offset="1" style="stop-color:#FFFFFF;stop-opacity:0"/>
</radialGradient>
<path style="fill:url(#SVGID_00000145036430705517302550000002015588267432953773_);" d="M992-384c70.7,0,128-57.3,128-128H864
	C864-441.3,921.3-384,992-384z"/>
<radialGradient id="SVGID_00000062872321749229298310000016576382887514925185_" cx="1050.9159" cy="-870.2492" r="128" fx="1050.7297" fy="-870.2778" gradientTransform="matrix(0 1 -1 0 185.7508 -1786.9159)" gradientUnits="userSpaceOnUse">
	<stop  offset="0" style="stop-color:#FFFFFF"/>
	<stop  offset="1" style="stop-color:#FFFFFF;stop-opacity:0"/>
</radialGradient>
<path style="fill:url(#SVGID_00000062872321749229298310000016576382887514925185_);" d="M928-736c0,70.7,57.3,128,128,128v-256
	C985.3-864,928-806.7,928-736z"/>
<radialGradient id="SVGID_00000096061440591540471400000007342718257216764046_" cx="1004.6667" cy="-1214.8145" r="128" fx="1004.4805" fy="-1214.843" gradientTransform="matrix(-1 0 0 -1 1996.6666 -2174.8145)" gradientUnits="userSpaceOnUse">
	<stop  offset="0" style="stop-color:#FFFFFF"/>
	<stop  offset="1" style="stop-color:#FFFFFF;stop-opacity:0"/>
</radialGradient>
<path style="fill:url(#SVGID_00000096061440591540471400000007342718257216764046_);" d="M992-1088c-70.7,0-128,57.3-128,128h256
	C1120-1030.7,1062.7-1088,992-1088z"/>
<radialGradient id="SVGID_00000046303127047096636760000011917646303246133643_" cx="926.7065" cy="-1441.2935" r="128" fx="926.5204" fy="-1441.322" gradientTransform="matrix(0 -1 1 0 2369.2935 -385.2935)" gradientUnits="userSpaceOnUse">
	<stop  offset="0" style="stop-color:#FFFFFF"/>
	<stop  offset="1" style="stop-color:#FFFFFF;stop-opacity:0"/>
</radialGradient>
<path style="fill:url(#SVGID_00000046303127047096636760000011917646303246133643_);" d="M1056-1312c0-70.7-57.3-128-128-128v256
	C998.7-1184,1056-1241.3,1056-1312z"/>
<linearGradient id="SVGID_00000025437592491764131840000014967083215524385172_" gradientUnits="userSpaceOnUse" x1="579" y1="-1024" x2="835" y2="-1024">
	<stop  offset="0" style="stop-color:#FFFFFF;stop-opacity:0"/>
	<stop  offset="0.5" style="stop-color:#FFFFFF"/>
	<stop  offset="1" style="stop-color:#FFFFFF;stop-opacity:0"/>
</linearGradient>
<rect x="576" y="-1026" style="fill:url(#SVGID_00000025437592491764131840000014967083215524385172_);" width="256" height="4"/>
<linearGradient id="SVGID_00000152942920699034942870000016433641127611483562_" gradientUnits="userSpaceOnUse" x1="704" y1="-713" x2="704" y2="-759" gradientTransform="matrix(0.5333 0 0 5.5652 328.5332 3360)">
	<stop  offset="0" style="stop-color:#FFFFFF;stop-opacity:0"/>
	<stop  offset="0.5" style="stop-color:#FFFFFF"/>
	<stop  offset="1" style="stop-color:#FFFFFF;stop-opacity:0"/>
</linearGradient>
<rect x="702" y="-864" style="fill:url(#SVGID_00000152942920699034942870000016433641127611483562_);" width="4" height="256"/>
<g>
	<path class="st0" d="M705-449v2h-2v-2H705 M706-450h-4v4h4V-450L706-450z"/>
</g>
<g>
	<path class="st0" d="M1570-450v4h-4v-4H1570 M1572-452h-8v8h8V-452L1572-452z"/>
</g>
<g>
	<path class="st0" d="M1857-449v2h-2v-2H1857 M1860-452h-8v8h8V-452L1860-452z"/>
</g>
<g>
	<path class="st0" d="M708-164v8h-8v-8H708 M712-168h-16v16h16V-168L712-168z"/>
</g>
<g>
	<path class="st0" d="M995-163v6h-6v-6H995 M1000-168h-16v16h16V-168L1000-168z"/>
</g>
<g>
	<path class="st0" d="M1282-162v4h-4v-4H1282 M1288-168h-16v16h16V-168L1288-168z"/>
</g>
<g>
	<path class="st0" d="M1569-161v2h-2v-2H1569 M1576-168h-16v16h16V-168L1576-168z"/>
</g>
<g>
	<path class="st0" d="M1860-164v8h-8v-8H1860 M1868-172h-24v24h24V-172L1868-172z"/>
</g>
<rect x="1854" y="126" class="st0" width="4" height="4"/>
<g>
	<path class="st0" d="M1571,125v6h-6v-6H1571 M1572,124h-8v8h8V124L1572,124z"/>
</g>
<g>
	<path class="st0" d="M1569,127v2h-2v-2H1569 M1570,126h-4v4h4V126L1570,126z"/>
</g>
<g>
	<path class="st0" d="M1287,121v14h-14v-14H1287 M1288,120h-16v16h16V120L1288,120z"/>
</g>
<g>
	<path class="st0" d="M1284,124v8h-8v-8H1284 M1286,122h-12v12h12V122L1286,122z"/>
</g>
<g>
	<path class="st0" d="M999,121v14h-14v-14H999 M1000,120h-16v16h16V120L1000,120z"/>
</g>
<g>
	<path class="st0" d="M995,125v6h-6v-6H995 M998,122h-12v12h12V122L998,122z"/>
</g>
<g>
	<path class="st0" d="M711,121v14h-14v-14H711 M712,120h-16v16h16V120L712,120z"/>
</g>
<g>
	<path class="st0" d="M706,126v4h-4v-4H706 M710,122h-12v12h12V122L710,122z"/>
</g>
<g>
	<path class="st0" d="M711,409v14h-14v-14H711 M712,408h-16v16h16V408L712,408z"/>
</g>
<g>
	<path class="st0" d="M705,415v2h-2v-2H705 M710,410h-12v12h12V410L710,410z"/>
</g>
<g>
	<path class="st0" d="M998,410v12h-12v-12H998 M1000,408h-16v16h16V408L1000,408z"/>
</g>
<g>
	<path class="st0" d="M996,412v8h-8v-8H996 M997,411h-10v10h10V411L997,411z"/>
</g>
<g>
	<path class="st0" d="M1285,411v10h-10v-10H1285 M1288,408h-16v16h16V408L1288,408z"/>
</g>
<g>
	<path class="st0" d="M1283,413v6h-6v-6H1283 M1284,412h-8v8h8V412L1284,412z"/>
</g>
<g>
	<path class="st0" d="M1572,412v8h-8v-8H1572 M1576,408h-16v16h16V408L1576,408z"/>
</g>
<g>
	<path class="st0" d="M1570,414v4h-4v-4H1570 M1571,413h-6v6h6V413L1571,413z"/>
</g>
<g>
	<path class="st0" d="M1859,413v6h-6v-6H1859 M1864,408h-16v16h16V408L1864,408z"/>
</g>
<g>
	<path class="st0" d="M1857,415v2h-2v-2H1857 M1858,414h-4v4h4V414L1858,414z"/>
</g>
<text transform="matrix(1 0 0 1 -1443.1904 -1999.978)" style="font-family:'MyriadPro-Regular'; font-size:12px;">Hat Solid  </text>
<circle class="st0" cx="-3040" cy="-1378.8" r="61.2"/>
<path class="st0" d="M-2929.5-1184v-104.9c0-19.2-15.5-34.7-34.7-34.7h-29.8c-11.5,12.2-27.9,19.8-46,19.8s-34.4-7.6-46-19.8h-29.8
	c-19.2,0-34.7,15.5-34.7,34.7v104.9H-2929.5z"/>
<circle class="st0" cx="-2682.1" cy="-1367" r="32.2"/>
<circle class="st0" cx="-2821.9" cy="-1367" r="32.2"/>
<circle class="st0" cx="-2754.8" cy="-1327.3" r="32.2"/>
<path class="st0" d="M-2696.7-1224.8v-55.2c0-10.1-8.2-18.3-18.3-18.3h-15.7c-6.1,6.4-14.7,10.4-24.2,10.4c-9.5,0-18.1-4-24.2-10.4
	h-15.7c-10.1,0-18.3,8.2-18.3,18.3v55.2H-2696.7z"/>
<path class="st0" d="M-2696.7-1224.8v-55.2c0-10.1-8.2-18.3-18.3-18.3h-15.7c-6.1,6.4-14.7,10.4-24.2,10.4c-9.5,0-18.1-4-24.2-10.4
	h-15.7c-10.1,0-18.3,8.2-18.3,18.3v55.2H-2696.7z"/>
<path class="st0" d="M-2642.3-1338h-15.7c-6.1,6.4-14.7,10.4-24.2,10.4c-9.5,0-18.1-4-24.2-10.4h-10.6c0.9,3.4,1.5,6.9,1.5,10.6
	c0,9-3,17.3-8.1,23.9h14.2c11.5,0,20.8,9.3,20.8,20.8v18.1h64.5v-55.2C-2624-1329.8-2632.2-1338-2642.3-1338z"/>
<path class="st0" d="M-2821.2-1282.6c0-11.5,9.3-20.8,20.8-20.8h14.2c-5.1-6.6-8.1-14.9-8.1-23.9c0-3.7,0.5-7.2,1.5-10.6h-5
	c-6.1,6.4-14.7,10.4-24.2,10.4c-9.5,0-18.1-4-24.2-10.4h-15.7c-10.1,0-18.3,8.2-18.3,18.3v55.2h58.8V-1282.6z"/>
<circle class="st0" cx="-2464" cy="-1346.2" r="31.3"/>
<path class="st0" d="M-2407.6-1246.6v-53.6c0-9.8-7.9-17.7-17.7-17.7h-15.2c-5.9,6.2-14.2,10.1-23.5,10.1s-17.6-3.9-23.5-10.1h-15.2
	c-9.8,0-17.7,7.9-17.7,17.7v53.6H-2407.6z"/>
<path class="st0" d="M-2526.3-1302.1c0-10.8,8.8-19.6,19.6-19.6h1.4c0.7-2.6,1.1-5.3,1.1-8.2c0-17.3-14-31.3-31.3-31.3
	c-17.3,0-31.3,14-31.3,31.3c0,17.3,14,31.3,31.3,31.3c3.2,0,6.3-0.5,9.3-1.4V-1302.1z"/>
<path class="st0" d="M-2392.4-1361.1c-17.3,0-31.3,14-31.3,31.3c0,2.8,0.4,5.6,1.1,8.2h1.4c10.8,0,19.6,8.8,19.6,19.6v2.1
	c2.9,0.9,6,1.4,9.3,1.4c17.3,0,31.3-14,31.3-31.3C-2361.2-1347.1-2375.2-1361.1-2392.4-1361.1z"/>
<path class="st0" d="M-2336-1246.6v-37.3c0-9.8-7.9-17.7-17.7-17.7h-15.2c-5.9,6.2-14.2,10.1-23.5,10.1c-3.2,0-6.3-0.5-9.3-1.4v46.2
	H-2336z"/>
<path class="st0" d="M-2526.3-1246.6v-46.2c-2.9,0.9-6,1.4-9.3,1.4c-9.3,0-17.6-3.9-23.5-10.1h-15.2c-9.8,0-17.7,7.9-17.7,17.7v37.3
	H-2526.3z"/>
<circle class="st0" cx="-2171.8" cy="-1312.4" r="29.5"/>
<path class="st0" d="M-2118.6-1218.6v-50.5c0-9.2-7.5-16.7-16.7-16.7h-14.3c-5.6,5.9-13.4,9.5-22.1,9.5s-16.6-3.7-22.1-9.5h-14.3
	c-9.2,0-16.7,7.5-16.7,16.7v50.5H-2118.6z"/>
<circle class="st0" cx="-2257.3" cy="-1326.3" r="25.9"/>
<circle class="st0" cx="-2094.7" cy="-1323.9" r="25.9"/>
<circle class="st0" cx="-2225" cy="-1382.4" r="23"/>
<circle class="st0" cx="-2124.8" cy="-1382.4" r="23"/>
<path class="st0" d="M-2232.5-1271.5c0-10.5,8.5-19.1,19.1-19.1h2.7c-1.1-7-7.2-12.4-14.5-12.4h-12.6c-4.9,5.2-11.8,8.4-19.5,8.4
	c-7.7,0-14.6-3.2-19.4-8.4h-12.6c-8.1,0-14.7,6.6-14.7,14.7v44.4h71.5V-1271.5z"/>
<path class="st0" d="M-2062.7-1300.5h-12.6c-4.9,5.2-11.8,8.4-19.5,8.4s-14.6-3.2-19.5-8.4h-12.6c-6.5,0-11.9,4.2-13.9,10h10.6
	c10.5,0,19.1,8.5,19.1,19.1v30h63.1v-44.4C-2048-1294-2054.6-1300.5-2062.7-1300.5z"/>
<path class="st0" d="M-2196.5-1361.6h-11.2c-4.3,4.6-10.5,7.5-17.3,7.5s-13-2.9-17.3-7.5h-11.2c-4.2,0-8,2-10.4,5.2
	c2.1-0.4,4.3-0.7,6.5-0.7c17,0,30.8,13.8,30.8,30.8c0,6.4-1.9,12.3-5.2,17.2h24.3c-0.1-1.1-0.2-2.2-0.2-3.3
	c0-15.7,10.1-29,24.2-33.8v-2.3C-2183.4-1355.8-2189.3-1361.6-2196.5-1361.6z"/>
<path class="st0" d="M-2122.5-1309.1c-2-4.1-3.1-8.6-3.1-13.5c0-17,13.8-30.8,30.8-30.8c4,0,7.7,0.8,11.2,2.1
	c-1.3-5.9-6.5-10.3-12.8-10.3h-11.2c-4.3,4.6-10.5,7.5-17.3,7.5s-13-2.9-17.3-7.5h-11.2c-7.2,0-13,5.8-13,13v0.8
	c17.2,2.6,30.3,17.5,30.3,35.4c0,1.1-0.1,2.2-0.2,3.3H-2122.5z"/>
<polygon class="st0" points="-1600,-1440 -1728,-1312.3 -1728,-1310.3 -1728,-1255.7 -1728,-1184 -1648,-1184 -1648,-1280 
	-1552,-1280 -1552,-1184 -1472,-1184 -1472,-1268.5 -1472,-1310.3 -1472,-1312.3 "/>
<path class="st0" d="M-2624-1140.2v-11.8h-10.8l-71.7,71.7c-10.9-8.5-26.6-7.8-36.7,2.2l-14.3,14.3l9.2,9.2l-18.4,18.4
	c-2.3,2.3-2.3,6.1,0,8.5c2.3,2.3,6.1,2.3,8.5,0l18.4-18.4l10.8,10.8l-18.4,18.4c-2.3,2.3-2.3,6.1,0,8.5h0c2.3,2.3,6.1,2.3,8.5,0
	l18.4-18.4l8.2,8.2l14.3-14.3c9.8-9.8,10.7-25.3,2.7-36.1L-2624-1140.2z"/>
<path class="st0" d="M-2752.8-990.7l-17.7,17.7c-3.5,3.5-9.2,3.5-12.7,0h0c-3.5-3.5-3.5-9.2,0-12.7l17.7-17.7l-6.3-6.3l-17.6,17.6
	c-3.5,3.5-9.2,3.5-12.7,0h0c-3.5-3.5-3.5-9.2,0-12.7l17.6-17.6l-7.1-7.1l-14.3,14.3c-10,10-10.8,25.8-2.2,36.7l-71.7,71.7v10.8h11.8
	l71.3-71.3c10.9,8.1,26.3,7.2,36.1-2.7l14.3-14.3L-2752.8-990.7z"/>
<path class="st0" d="M-2336-1140.2v-11.8h-10.8l-87.2,87.2c-10.9-8.5-26.6-7.8-36.7,2.2l-14.3,14.3l9.2,9.2l-18.4,18.4
	c-2.3,2.3-2.3,6.1,0,8.5c2.3,2.3,6.1,2.3,8.5,0l18.4-18.4l10.8,10.8l-18.4,18.4c-2.3,2.3-2.3,6.1,0,8.5h0c2.3,2.3,6.1,2.3,8.5,0
	l18.4-18.4l8.2,8.2l14.3-14.3c9.8-9.8,10.7-25.3,2.7-36.1L-2336-1140.2z"/>
<path class="st0" d="M-2449.4-1006.1l-17.7,17.7c-3.5,3.5-9.2,3.5-12.7,0h0c-3.5-3.5-3.5-9.2,0-12.7l17.7-17.7l-6.3-6.3l-17.6,17.6
	c-3.5,3.5-9.2,3.5-12.7,0l0,0c-3.5-3.5-3.5-9.2,0-12.7l17.6-17.6l-7.1-7.1l-14.3,14.3c-10,10-10.8,25.8-2.2,36.7l-87.2,87.2v10.8
	h11.8l86.7-86.7c10.9,8.1,26.3,7.2,36.1-2.7l14.3-14.3L-2449.4-1006.1z"/>
<path class="st0" d="M-2048-1152h-10.8l-87.2,87.2c-10.9-8.5-26.6-7.8-36.7,2.2l-31.9,31.9c-10,10-10.8,25.8-2.2,36.7l-87.2,87.2
	v10.8h11.8l86.7-86.7c10.9,8.1,26.3,7.2,36.1-2.7l31.9-31.9c9.8-9.8,10.7-25.3,2.7-36.1l86.7-86.7V-1152z"/>
<circle class="st0" cx="-1980.5" cy="-1333.5" r="19.7"/>
<path class="st0" d="M-1945-1270.9v-33.7c0-6.2-5-11.1-11.1-11.1h-9.6c-3.7,3.9-8.9,6.4-14.8,6.4s-11.1-2.4-14.8-6.4h-9.6
	c-6.2,0-11.1,5-11.1,11.1v33.7H-1945z"/>
<circle class="st0" cx="-1795.5" cy="-1333.5" r="19.7"/>
<path class="st0" d="M-1760-1270.9v-33.7c0-6.2-5-11.1-11.1-11.1h-9.6c-3.7,3.9-8.9,6.4-14.8,6.4s-11.1-2.4-14.8-6.4h-9.6
	c-6.2,0-11.1,5-11.1,11.1v33.7H-1760z"/>
<g>
	<path class="st0" d="M-1969.3-1363.4c17-26.9,47.1-44.8,81.3-44.8s64.2,17.9,81.3,44.8h10.7c-18-32.2-52.5-54-92-54s-74,21.8-92,54
		H-1969.3z"/>
	<path class="st0" d="M-1806.7-1260.6c-17,26.9-47.1,44.8-81.3,44.8s-64.2-17.9-81.3-44.8h-10.7c18,32.2,52.5,54,92,54
		s74-21.8,92-54H-1806.7z"/>
</g>
<g>
	<path class="st0" d="M-1870.8-981.4c11.4-17.9,15.6-40.4,9.7-62.5c-2.6-10-4.3-15-10.1-22.8c-4.1,3.7-8.3,7.4-11.2,12.1
		c3.5,5.4,4.2,8.1,6,14.8c4.1,15.5,2.1,31.2-4.6,44.5c-0.2,0.4-0.4,0.8-0.6,1.2c0,0.1-0.1,0.1-0.1,0.2c-8,14.8-21.8,26.4-39.3,31
		c-33.6,8.9-68.1-11.1-77-44.7c-8.9-33.6,11.1-68.1,44.7-77c18.1-4.8,32.2-3.7,46.7,5.8c2.9-4.4,6.7-8.6,10.8-12
		c-18.4-12.9-38.1-15.3-61.5-9.1c-42,11.2-67,54.3-55.9,96.3c11.2,42,54.3,67,96.3,55.9C-1897.1-952.9-1881.1-965.3-1870.8-981.4
		C-1870.8-981.4-1870.8-981.4-1870.8-981.4z"/>
	<path class="st0" d="M-1762.4-1043.7c-10.7-42.1-53.6-67.6-95.7-56.9c-19.9,5.1-36.1,17.3-46.5,33.3c0,0,0,0,0,0
		c-11.6,17.8-16,40.2-10.4,62.4c2.5,10,4.1,15,9.9,22.9c4.1-3.7,8.4-7.3,11.3-11.9c-3.5-5.5-4.2-8.2-5.8-14.8
		c-4-15.6-1.7-31.3,5.1-44.5c0.2-0.4,0.4-0.8,0.7-1.2c0-0.1,0.1-0.1,0.1-0.2c8.1-14.7,22-26.1,39.6-30.6
		c33.7-8.6,67.9,11.8,76.5,45.5c8.6,33.7-11.8,67.9-45.5,76.5c-18.1,4.6-32.3,3.4-46.6-6.3c-3,4.3-6.8,8.5-10.9,11.9
		c18.2,13.1,38,15.7,61.4,9.7C-1777.2-958.7-1751.7-1001.5-1762.4-1043.7z"/>
</g>
<path class="st0" d="M-1518-1052.9c-1.2-30.1-26-54.2-56.4-54.2c-21.2,0-39.7,11.7-49.3,29c-2.9-0.5-5.9-0.8-8.9-0.8
	c-24.7,0-45,18.7-47.4,42.8c-0.1,0-0.2,0-0.3,0c-26.3,0-47.7,21.3-47.7,47.7c0,26.3,21.3,47.7,47.7,47.7h151.8
	c31.2,0,56.5-25.3,56.5-56.5C-1472-1025-1491.8-1048-1518-1052.9z"/>
<g>
	<path class="st0" d="M-3131.8-920.5l-11.7-11.7c-12.2-12.2-12.2-31.9,0-44.1l72.7-72.7c12.2-12.2,31.9-12.2,44.1,0l5.9,5.9
		l11.2-11.2l-6.1-6.1c-17.4-17.4-45.7-17.4-63.2,0l-75.9,75.9c-17.4,17.4-17.4,45.7,0,63.2l12.2,12.2c17.4,17.4,45.7,17.4,63.2,0
		l38-38l-9.8-9.8l-36.3,36.3C-3099.9-908.3-3119.6-908.3-3131.8-920.5z"/>
	<path class="st0" d="M-3000.4-1138.9l-38,38l9.8,9.8l36.3-36.3c12.2-12.2,31.9-12.2,44.1,0l11.7,11.7c12.2,12.2,12.2,31.9,0,44.1
		l-72.7,72.7c-12.2,12.2-31.9,12.2-44.1,0l-5.9-5.9l-11.2,11.2l6.1,6.1c17.4,17.4,45.7,17.4,63.2,0l75.9-75.9
		c17.4-17.4,17.4-45.7,0-63.2l-12.2-12.2C-2954.7-1156.4-2983-1156.4-3000.4-1138.9z"/>
</g>
<path class="st0" d="M-1518-764.9c-1.2-30.1-26-54.2-56.4-54.2c-21.2,0-39.7,11.7-49.3,29c-2.9-0.5-5.9-0.8-8.9-0.8
	c-24.7,0-45,18.7-47.4,42.8c-0.1,0-0.2,0-0.3,0c-26.3,0-47.7,21.3-47.7,47.7c0,26.3,21.3,47.7,47.7,47.7h34.7v-44.6
	c0-8.1,6.6-14.8,14.8-14.8h12.7c4.9,5.2,11.8,8.4,19.6,8.4c7.7,0,14.6-3.2,19.6-8.4h12.7c8.1,0,14.8,6.6,14.8,14.8v44.6h23.2
	c31.2,0,56.5-25.3,56.5-56.5C-1472-737-1491.8-760-1518-764.9z M-1598.6-709.7c-14.4,0-26-11.7-26-26s11.7-26,26-26
	c14.4,0,26,11.7,26,26S-1584.3-709.7-1598.6-709.7z"/>
<path class="st0" d="M-2932.7-736c0-1.5,0-3-0.1-4.5l20.8-8.6c-0.7-6.8-1.9-13.5-3.6-20h-22.3c-1.4-4.4-3.1-8.7-5.1-12.8l15.9-15.9
	c-3.2-5.9-6.9-11.4-10.9-16.7l-20.6,8.5c-3.1-3.6-6.5-7-10-10.2l8.6-20.7c-5.1-4.1-10.6-7.7-16.3-11l-15.8,15.8
	c-4.4-2.2-8.9-4.1-13.6-5.6v-22.3c-6.3-1.7-12.7-3-19.4-3.8l-8.6,20.7c-2.1-0.1-4.2-0.2-6.3-0.2c-2.5,0-5,0.1-7.5,0.3l-8.6-20.6
	c-6.6,0.8-13.1,2.2-19.4,4v22.4c-4.1,1.4-8,3.1-11.8,5l-15.8-15.8c-5.9,3.3-11.5,7.1-16.8,11.3l8.6,20.7c-3.5,3.2-6.9,6.5-10,10.1
	l-20.6-8.5c-4.1,5.3-7.7,10.8-10.9,16.7l15.9,15.9c-2,4.1-3.7,8.4-5.1,12.9h-22.3c-1.7,6.5-3,13.1-3.6,19.9l20.8,8.6
	c-0.1,1.5-0.1,3-0.1,4.5c0,2.7,0.1,5.3,0.3,8l-20.6,8.5c0.9,6.9,2.3,13.6,4.2,20.1h22.5c1.3,3.4,2.7,6.8,4.3,10.1l-15.8,15.8
	c3.3,5.9,7,11.5,11.2,16.8l20.7-8.6c3.1,3.5,6.4,6.8,9.9,9.9l-8.6,20.7c5.3,4.2,11,7.9,17,11.2l15.9-15.9c3.9,1.9,8,3.5,12.1,4.9
	v22.3c6.5,1.8,13.3,3.1,20.2,3.8l8.6-20.8c1.8,0.1,3.6,0.1,5.4,0.1c2,0,3.9-0.1,5.8-0.2l8.6,20.7c6.8-0.8,13.4-2,19.8-3.8v-22.3
	c4.2-1.4,8.2-3.1,12.1-4.9l15.9,15.9c6-3.3,11.6-7.1,17-11.2l-8.6-20.7c3.5-3.1,6.9-6.4,10-9.9l20.7,8.6c4.1-5.3,7.9-10.9,11.2-16.8
	l-15.8-15.8c1.6-3.3,3-6.6,4.3-10.1h22.5c1.9-6.5,3.4-13.2,4.2-20.1l-20.6-8.5C-2932.8-730.7-2932.7-733.4-2932.7-736z M-3040-655.3
	c-44.6,0-80.7-36.1-80.7-80.7c0-44.6,36.1-80.7,80.7-80.7s80.7,36.1,80.7,80.7C-2959.3-691.5-2995.4-655.3-3040-655.3z"/>
<path class="st0" d="M-2464-864c-70.7,0-128,57.3-128,128c0,70.7,57.3,128,128,128s128-57.3,128-128
	C-2336-806.7-2393.3-864-2464-864z M-2360.3-705.2h-18.9c-1.1,2.9-2.2,5.7-3.6,8.5l13.3,13.3c-2.8,5-5.9,9.7-9.4,14.1l-17.4-7.2
	c-2.6,3-5.4,5.8-8.4,8.4l7.2,17.4c-4.5,3.5-9.3,6.7-14.3,9.4l-13.3-13.3c-3.3,1.6-6.7,3-10.2,4.1v18.8c-5.4,1.5-11,2.6-16.7,3.2
	l-7.2-17.4c-1.6,0.1-3.3,0.1-4.9,0.1c-1.5,0-3.1,0-4.6-0.1l-7.2,17.5c-5.8-0.6-11.5-1.7-17-3.2v-18.8c-3.5-1.2-6.9-2.6-10.2-4.1
	l-13.3,13.3c-5-2.8-9.8-5.9-14.3-9.4l7.2-17.4c-3-2.6-5.8-5.4-8.4-8.4l-17.4,7.2c-3.5-4.4-6.6-9.2-9.4-14.1l13.3-13.3
	c-1.3-2.8-2.5-5.6-3.6-8.5h-18.9c-1.6-5.5-2.8-11.1-3.6-16.9l17.3-7.2c-0.2-2.2-0.2-4.5-0.2-6.7c0-1.3,0-2.6,0.1-3.8l-17.5-7.3
	c0.6-5.7,1.6-11.3,3.1-16.8h18.7c1.2-3.7,2.6-7.3,4.3-10.8l-13.4-13.4c2.7-4.9,5.8-9.6,9.2-14l17.3,7.2c2.6-3,5.4-5.9,8.4-8.5
	l-7.2-17.4c4.4-3.5,9.1-6.7,14.1-9.5l13.3,13.3c3.2-1.6,6.5-3,9.9-4.2V-840c5.3-1.5,10.7-2.6,16.3-3.3l7.2,17.4
	c2.1-0.1,4.2-0.2,6.3-0.2c1.8,0,3.5,0.1,5.3,0.2l7.2-17.4c5.6,0.6,11,1.7,16.3,3.2v18.8c3.9,1.3,7.7,2.9,11.4,4.7l13.3-13.3
	c4.8,2.7,9.4,5.8,13.7,9.2l-7.2,17.4c3,2.7,5.8,5.5,8.4,8.6l17.3-7.2c3.4,4.4,6.5,9.1,9.2,14l-13.4,13.4c1.7,3.5,3.1,7.1,4.3,10.8
	h18.7c1.4,5.4,2.5,11,3.1,16.8l-17.5,7.3c0.1,1.3,0.1,2.5,0.1,3.8c0,2.3-0.1,4.5-0.2,6.7l17.3,7.2
	C-2357.4-716.3-2358.7-710.7-2360.3-705.2z"/>
<path class="st0" d="M-2626.7-710.3c1.7-8.3,2.6-16.9,2.6-25.7c0-8.8-0.9-17.3-2.6-25.6h-30.9c-2.2-8-5.3-15.7-9.4-22.8l21.9-21.9
	c-9.5-14.4-21.8-26.8-36.2-36.4l-21.8,21.8c-7.1-4.1-14.8-7.3-22.9-9.6v-30.9c-8.4-1.7-17.1-2.6-26-2.6c-8.7,0-17.1,0.9-25.3,2.5
	v30.9c-8.2,2.2-15.9,5.4-23.1,9.5l-21.9-21.9c-5.4,3.6-10.6,7.6-15.4,11.9l-9.2,9.2c-4.3,4.7-8.2,9.8-11.7,15.1l21.8,21.8
	c-4.2,7.2-7.4,15-9.6,23.2h-30.9c-1.2,5.9-2,11.9-2.3,18v15.3c0.4,6.1,1.2,12.2,2.4,18.1h30.9c2.2,8.2,5.5,16,9.6,23.1l-21.8,21.8
	c3.8,5.7,8.1,11.2,12.8,16.2l6.9,6.9c5.2,4.8,10.8,9.2,16.7,13.1l21.9-21.9c7.2,4.1,14.9,7.3,23,9.5v30.9c8.2,1.6,16.7,2.5,25.3,2.5
	c8.9,0,17.6-0.9,26-2.6v-30.9c8.1-2.2,15.7-5.4,22.8-9.5l21.8,21.8c14.4-9.5,26.7-21.9,36.2-36.3l-21.9-21.9
	c4-7.1,7.2-14.7,9.4-22.7H-2626.7z M-2752-676.7c-32.8,0-59.3-26.6-59.3-59.3c0-32.8,26.6-59.3,59.3-59.3
	c32.8,0,59.3,26.6,59.3,59.3C-2692.7-703.3-2719.2-676.7-2752-676.7z"/>
<path class="st0" d="M-2176-864c-70.7,0-128,57.3-128,128s57.3,128,128,128s128-57.3,128-128S-2105.3-864-2176-864z M-2103.5-716.2
	c-1.7,6.2-4.1,12-7.2,17.5l16.8,16.8c-7.3,11.1-16.8,20.6-27.9,28l-16.8-16.8c-5.5,3.1-11.3,5.6-17.5,7.3v23.8c-6.5,1.3-13.1,2-20,2
	c-6.7,0-13.2-0.7-19.5-1.9v-23.8c-6.3-1.7-12.2-4.1-17.7-7.3l-16.8,16.8c-4.6-3-8.8-6.4-12.8-10.1l-5.3-5.3
	c-3.6-3.9-6.9-8.1-9.8-12.5l16.8-16.8c-3.2-5.5-5.7-11.5-7.4-17.8h-23.8c-0.9-4.5-1.5-9.2-1.8-13.9v-11.8c0.3-4.7,0.9-9.3,1.8-13.8
	h23.8c1.7-6.3,4.2-12.3,7.4-17.8l-16.8-16.8c2.7-4.1,5.7-8,9-11.6l7.1-7.1c3.7-3.3,7.7-6.4,11.9-9.2l16.8,16.8
	c5.5-3.2,11.5-5.6,17.8-7.3v-23.8c6.3-1.3,12.8-1.9,19.5-1.9c6.9,0,13.5,0.7,20,2v23.8c6.2,1.7,12.1,4.2,17.6,7.4l16.8-16.8
	c11.1,7.4,20.6,16.9,27.9,28l-16.8,16.8c3.1,5.4,5.5,11.3,7.2,17.5h23.8c1.3,6.4,2,13,2,19.7c0,6.8-0.7,13.4-2,19.8H-2103.5z"/>
<path class="st0" d="M-1184-1331.3c0-53.2-57.3-96.3-128-96.3s-128,43.1-128,96.3c0,20.7,8.6,39.8,23.4,55.5l-17.8,79.5l123.7-38.7
	C-1240.7-1235.5-1184-1278.5-1184-1331.3z"/>
<path class="st0" d="M-1230-802.7c-1.2-30.1-26-54.2-56.4-54.2c-21.2,0-39.7,11.7-49.3,29c-2.9-0.5-5.9-0.8-8.9-0.8
	c-24.7,0-45,18.7-47.4,42.8c-0.1,0-0.2,0-0.3,0c-26.3,0-47.7,21.3-47.7,47.7c0,25.8,20.5,46.8,46.1,47.6l-25,75.6l117.8-75.5h60.7
	c31.2,0,56.5-25.3,56.5-56.5C-1184-774.8-1203.8-797.7-1230-802.7z"/>
<polygon class="st0" points="-1184,-1152 -1440,-1152 -1440,-997.8 -1373.4,-997.8 -1423.4,-896 -1268.5,-997.8 -1184,-997.8 "/>
<path class="st0" d="M-1024-1427.7c-70.7,0-128,43.1-128,96.3c0,20.7,8.6,39.8,23.4,55.5l-17.8,79.5l123.7-38.7
	c70.1-0.5,126.8-43.4,126.8-96.3C-896-1384.5-953.3-1427.7-1024-1427.7z M-1089.2-1312c-13.5,0-24.4-10.9-24.4-24.4
	c0-13.5,10.9-24.4,24.4-24.4c13.5,0,24.4,10.9,24.4,24.4C-1064.8-1322.9-1075.7-1312-1089.2-1312z M-1026.4-1312
	c-13.5,0-24.4-10.9-24.4-24.4c0-13.5,10.9-24.4,24.4-24.4c13.5,0,24.4,10.9,24.4,24.4C-1002-1322.9-1012.9-1312-1026.4-1312z
	 M-963.7-1312c-13.5,0-24.4-10.9-24.4-24.4c0-13.5,10.9-24.4,24.4-24.4s24.4,10.9,24.4,24.4C-939.2-1322.9-950.2-1312-963.7-1312z"
	/>
<path class="st0" d="M-1152-1152v154.2h66.6l-50,101.8l154.9-101.8h84.5V-1152H-1152z M-1089.2-1050.2c-13.5,0-24.4-10.9-24.4-24.4
	s10.9-24.4,24.4-24.4c13.5,0,24.4,10.9,24.4,24.4S-1075.7-1050.2-1089.2-1050.2z M-1026.4-1050.2c-13.5,0-24.4-10.9-24.4-24.4
	s10.9-24.4,24.4-24.4c13.5,0,24.4,10.9,24.4,24.4S-1012.9-1050.2-1026.4-1050.2z M-963.7-1050.2c-13.5,0-24.4-10.9-24.4-24.4
	s10.9-24.4,24.4-24.4s24.4,10.9,24.4,24.4S-950.2-1050.2-963.7-1050.2z"/>
<path class="st0" d="M-942-802.7c-1.2-30.1-26-54.2-56.4-54.2c-21.2,0-39.7,11.7-49.3,29c-2.9-0.5-5.9-0.8-8.9-0.8
	c-24.7,0-45,18.7-47.4,42.8c-0.1,0-0.2,0-0.2,0c-26.3,0-47.7,21.3-47.7,47.7c0,25.8,20.5,46.8,46.1,47.6l-25,75.6l117.8-75.5h60.7
	c31.2,0,56.5-25.3,56.5-56.5C-896-774.8-915.8-797.7-942-802.7z M-1089.2-723.1c-13.5,0-24.4-10.9-24.4-24.4
	c0-13.5,10.9-24.4,24.4-24.4c13.5,0,24.4,10.9,24.4,24.4C-1064.8-734.1-1075.7-723.1-1089.2-723.1z M-1026.4-723.1
	c-13.5,0-24.4-10.9-24.4-24.4c0-13.5,10.9-24.4,24.4-24.4c13.5,0,24.4,10.9,24.4,24.4C-1002-734.1-1012.9-723.1-1026.4-723.1z
	 M-963.7-723.1c-13.5,0-24.4-10.9-24.4-24.4c0-13.5,10.9-24.4,24.4-24.4s24.4,10.9,24.4,24.4C-939.2-734.1-950.2-723.1-963.7-723.1z
	"/>
<path class="st0" d="M-736-1427.7c-70.7,0-128,43.1-128,96.3c0,20.7,8.6,39.8,23.4,55.5l-17.8,79.5l123.7-38.7
	c70.1-0.5,126.8-43.4,126.8-96.3C-608-1384.5-665.3-1427.7-736-1427.7z M-696.5-1305.6h-128v-25.1h128V-1305.6z M-647.5-1354.1h-177
	v-24h177V-1354.1z"/>
<path class="st0" d="M-864-1152v154.2h66.6l-50,101.8l154.9-101.8h84.5V-1152H-864z M-696.5-1038.4h-128v-25.1h128V-1038.4z
	 M-647.5-1087h-177v-24h177V-1087z"/>
<path class="st0" d="M-654-802.7c-1.2-30.1-26-54.2-56.4-54.2c-21.2,0-39.7,11.7-49.3,29c-2.9-0.5-5.9-0.8-8.9-0.8
	c-24.7,0-45,18.7-47.4,42.8c-0.1,0-0.2,0-0.2,0c-26.3,0-47.7,21.3-47.7,47.7c0,25.8,20.5,46.8,46.1,47.6l-25,75.6l117.8-75.5h60.7
	c31.2,0,56.5-25.3,56.5-56.5C-608-774.8-627.8-797.7-654-802.7z M-696.5-699.7h-128v-25.1h128V-699.7z M-647.5-748.3h-177v-24h177
	V-748.3z"/>
<g>
	<path class="st0" d="M-2989.4-576H-3152v256h224v-185.8L-2989.4-576z M-3124-560h112v64h-112V-560z M-2957.1-348.4H-3124V-467
		h166.9V-348.4z"/>
	<rect x="-3058" y="-551.7" class="st0" width="28" height="48"/>
</g>
<path class="st0" d="M-448-1427.7c-70.7,0-128,43.1-128,96.3c0,20.7,8.6,39.8,23.4,55.5l-17.8,79.5l123.7-38.7
	c70.1-0.5,126.8-43.4,126.8-96.3C-320-1384.5-377.3-1427.7-448-1427.7z M-453.4-1274.8c-6.7,0-11.3-5.2-11.3-11.9
	c0-7.1,4.8-12.1,11.5-12.1s11.3,5,11.3,12.1C-441.9-1280-446.3-1274.8-453.4-1274.8z M-434.8-1346.8c-8.4,10-11.5,18.4-10.9,28.2
	l0.2,5h-15l-0.4-5c-1.2-10.4,2.3-21.7,11.9-33.2c8.6-10.2,13.4-17.7,13.4-26.3c0-9.8-6.1-16.3-18.2-16.5c-6.9,0-14.6,2.3-19.4,6
	l-4.6-12.1c6.3-4.6,17.3-7.7,27.5-7.7c22.1,0,32.1,13.6,32.1,28.2C-418.2-1367.1-425.5-1357.7-434.8-1346.8z"/>
<path class="st0" d="M-576-1152v154.2h66.6l-50,101.8l154.9-101.8h84.5V-1152H-576z M-453.4-1007.9c-6.7,0-11.3-5.2-11.3-11.9
	c0-7.1,4.8-12.1,11.5-12.1s11.3,5,11.3,12.1C-441.9-1013-446.3-1007.9-453.4-1007.9z M-434.8-1079.9c-8.4,10-11.5,18.4-10.9,28.2
	l0.2,5h-15l-0.4-5c-1.2-10.4,2.3-21.7,11.9-33.2c8.6-10.2,13.4-17.7,13.4-26.3c0-9.8-6.1-16.3-18.2-16.5c-6.9,0-14.6,2.3-19.4,6
	l-4.6-12.1c6.3-4.6,17.3-7.7,27.5-7.7c22.1,0,32.1,13.6,32.1,28.2C-418.2-1100.2-425.5-1090.8-434.8-1079.9z"/>
<path class="st0" d="M-366-802.7c-1.2-30.1-26-54.2-56.4-54.2c-21.2,0-39.7,11.7-49.3,29c-2.9-0.5-5.9-0.8-8.9-0.8
	c-24.7,0-45,18.7-47.4,42.8c-0.1,0-0.2,0-0.2,0c-26.3,0-47.7,21.3-47.7,47.7c0,25.8,20.5,46.8,46.1,47.6l-25,75.6l117.8-75.5h60.7
	c31.2,0,56.5-25.3,56.5-56.5C-320-774.8-339.8-797.7-366-802.7z M-423.6-705.5c-6.7,0-11.3-5.2-11.3-11.9c0-7.1,4.8-12.1,11.5-12.1
	s11.3,5,11.3,12.1C-412.1-710.7-416.5-705.5-423.6-705.5z M-405-777.5c-8.4,10-11.5,18.4-10.9,28.2l0.2,5h-15l-0.4-5
	c-1.2-10.4,2.3-21.7,11.9-33.2c8.6-10.2,13.4-17.7,13.4-26.3c0-9.8-6.1-16.3-18.2-16.5c-6.9,0-14.6,2.3-19.4,6l-4.6-12.1
	c6.3-4.6,17.3-7.7,27.5-7.7c22.1,0,32.1,13.6,32.1,28.2C-388.5-797.8-395.8-788.4-405-777.5z"/>
<path class="st0" d="M-160-1427.7c-70.7,0-128,43.1-128,96.3c0,20.7,8.6,39.8,23.4,55.5l-17.8,79.5l123.7-38.7
	c70.1-0.5,126.8-43.4,126.8-96.3C-32-1384.5-89.3-1427.7-160-1427.7z M-150.8-1411l-2.7,92.2h-13.1l-2.7-92.2H-150.8z M-160-1279.4
	c-6.7,0-11.3-5.2-11.3-11.9c0-6.9,4.8-11.9,11.3-11.9c6.9,0,11.3,5,11.3,11.9C-148.7-1284.6-153.1-1279.4-160-1279.4z"/>
<path class="st0" d="M-288-1152v154.2h66.6l-50,101.8l154.9-101.8H-32V-1152H-288z M-150.8-1133.9l-2.7,92.2h-13.1l-2.7-92.2H-150.8
	z M-160-1002.4c-6.7,0-11.3-5.2-11.3-11.9c0-6.9,4.8-11.9,11.3-11.9c6.9,0,11.3,5,11.3,11.9C-148.7-1007.6-153.1-1002.4-160-1002.4z
	"/>
<path class="st0" d="M-78-802.7c-1.2-30.1-26-54.2-56.4-54.2c-21.2,0-39.7,11.7-49.3,29c-2.9-0.5-5.9-0.8-8.9-0.8
	c-24.7,0-45,18.7-47.4,42.8c-0.1,0-0.2,0-0.2,0c-26.3,0-47.7,21.3-47.7,47.7c0,25.8,20.5,46.8,46.1,47.6l-25,75.6l117.8-75.5h60.7
	c31.2,0,56.5-25.3,56.5-56.5C-32-774.8-51.8-797.7-78-802.7z M-128.1-838l-2.7,92.2h-13.1l-2.7-92.2H-128.1z M-137.3-706.5
	c-6.7,0-11.3-5.2-11.3-11.9c0-6.9,4.8-11.9,11.3-11.9c6.9,0,11.3,5,11.3,11.9C-126-711.7-130.4-706.5-137.3-706.5z"/>
<circle class="st0" cx="-2752" cy="-480" r="16"/>
<path class="st0" d="M-2848-576v256h192v-256H-2848z M-2827.3-565.7c5.7,0,10.3,4.6,10.3,10.3c0,5.7-4.6,10.3-10.3,10.3
	c-5.7,0-10.3-4.6-10.3-10.3C-2837.7-561-2833-565.7-2827.3-565.7z M-2827.3-327.7c-5.7,0-10.3-4.6-10.3-10.3
	c0-5.7,4.6-10.3,10.3-10.3c5.7,0,10.3,4.6,10.3,10.3C-2817-332.3-2821.6-327.7-2827.3-327.7z M-2751.9-400c-7.9,0-15.4-1.2-22.6-3.3
	l14.6-46.7l-14.6-6.6l-26.3,39.9c-18.9-14.6-31.1-37.5-31.1-63.3c0-44.2,35.8-80,80-80c44.2,0,80,35.8,80,80
	C-2671.9-435.8-2707.7-400-2751.9-400z M-2676.9-327.7c-5.7,0-10.3-4.6-10.3-10.3c0-5.7,4.6-10.3,10.3-10.3s10.3,4.6,10.3,10.3
	C-2666.5-332.3-2671.2-327.7-2676.9-327.7z M-2676.9-545c-5.7,0-10.3-4.6-10.3-10.3c0-5.7,4.6-10.3,10.3-10.3s10.3,4.6,10.3,10.3
	C-2666.5-549.6-2671.2-545-2676.9-545z"/>
<path class="st12" d="M-2464-485.7c-20.8,0-37.7,16.9-37.7,37.7s16.9,37.7,37.7,37.7s37.7-16.9,37.7-37.7S-2443.2-485.7-2464-485.7z
	 M-2464-432.1c-8.8,0-15.9-7.1-15.9-15.9c0-8.8,7.1-15.9,15.9-15.9s15.9,7.1,15.9,15.9C-2448.1-439.2-2455.2-432.1-2464-432.1z"/>
<path class="st0" d="M-2464-576c-70.7,0-128,57.3-128,128s57.3,128,128,128s128-57.3,128-128S-2393.3-576-2464-576z M-2464-555.6
	c29.4,0,56,11.8,75.4,30.8l-8,8c-17.4-17-41.2-27.5-67.4-27.5s-50,10.5-67.4,27.5l-8-8C-2520-543.9-2493.4-555.6-2464-555.6z
	 M-2464-410.3c-20.8,0-37.7-16.9-37.7-37.7s16.9-37.7,37.7-37.7s37.7,16.9,37.7,37.7S-2443.2-410.3-2464-410.3z M-2419.3-402.4
	l5.3,5.3c-12.9,12.6-30.5,20.4-50,20.4c-19.5,0-37.1-7.8-50-20.4l5.3-5.3c11.5,11.3,27.3,18.3,44.7,18.3S-2430.8-391.1-2419.3-402.4
	z M-2464-511.9c-17.4,0-33.2,7-44.7,18.3l-5.3-5.3c12.9-12.6,30.5-20.4,50-20.4c19.5,0,37.1,7.8,50,20.4l-5.3,5.3
	C-2430.8-504.9-2446.6-511.9-2464-511.9z M-2565.6-500.9c5.3-10.1,12-19.3,19.9-27.4l43.4,43.4c-3.4,3.5-6.3,7.5-8.6,11.9
	L-2565.6-500.9z M-2464-340.4c-29.4,0-56-11.8-75.4-30.8l8-8c17.4,17,41.2,27.5,67.4,27.5s50-10.5,67.4-27.5l8,8
	C-2408-352.1-2434.6-340.4-2464-340.4z M-2382.3-367.7l-43.4-43.4c3.4-3.5,6.3-7.5,8.6-11.9l54.7,27.9
	C-2367.6-385-2374.4-375.8-2382.3-367.7z"/>
<g>
	<path class="st0" d="M-2176-512.5c-70.7,0-128,14.7-128,32.8s57.3,32.8,128,32.8s128-14.7,128-32.8S-2105.3-512.5-2176-512.5z
		 M-2176-469.4c-22.1,0-40-4.6-40-10.3c0-5.7,17.9-10.3,40-10.3s40,4.6,40,10.3C-2136-474-2153.9-469.4-2176-469.4z"/>
	<path class="st0" d="M-2176-406.1c-70.7,0-128-14.7-128-32.8v22.6c0,18.1,57.3,32.8,128,32.8s128-14.7,128-32.8v-22.6
		C-2048-420.8-2105.3-406.1-2176-406.1z"/>
	<path class="st0" d="M-2176-437c-70.7,0-128-14.7-128-32.8v22.6c0,18.1,57.3,32.8,128,32.8s128-14.7,128-32.8v-22.6
		C-2048-451.7-2105.3-437-2176-437z"/>
</g>
<g>
	<path class="st0" d="M-1888-571.6c-70.7,0-128,22.5-128,50.2c0,27.7,57.3,50.2,128,50.2c70.7,0,128-22.5,128-50.2
		C-1760-549.1-1817.3-571.6-1888-571.6z M-1888-505.7c-22.1,0-40-7-40-15.7c0-8.7,17.9-15.7,40-15.7s40,7,40,15.7
		C-1848-512.7-1865.9-505.7-1888-505.7z"/>
	<path class="st0" d="M-1888-358.9c-70.7,0-128-22.5-128-50.2v34.5c0,27.7,57.3,50.2,128,50.2c70.7,0,128-22.5,128-50.2v-34.5
		C-1760-381.4-1817.3-358.9-1888-358.9z"/>
	<path class="st0" d="M-1888-406c-70.7,0-128-22.5-128-50.2v34.5c0,27.7,57.3,50.2,128,50.2c70.7,0,128-22.5,128-50.2v-34.5
		C-1760-428.4-1817.3-406-1888-406z"/>
	<path class="st0" d="M-1888-454.4c-70.7,0-128-22.5-128-50.2v34.5c0,27.7,57.3,50.2,128,50.2c70.7,0,128-22.5,128-50.2v-34.5
		C-1760-476.9-1817.3-454.4-1888-454.4z"/>
</g>
<path class="st0" d="M-2932-259h-216l-20,192h256L-2932-259z M-2964.9-226.3c-10.5,41-40.2,70.6-75.1,70.6
	c-34.9,0-64.5-29.4-75.1-70.2c-3.2-1.3-5.5-4.5-5.5-8.2c0-4.9,4-8.9,8.9-8.9c4.9,0,8.9,4,8.9,8.9c0,2.3-0.9,4.3-2.3,5.9
	c9.3,37.3,34.9,64.1,65.1,64.1c30,0,55.5-26.5,64.9-63.5c-1.7-1.6-2.8-3.9-2.8-6.5c0-4.9,4-8.9,8.9-8.9s8.9,4,8.9,8.9
	C-2960.1-230.7-2962-227.7-2964.9-226.3z"/>
<path class="st0" d="M-2805.2-212c3.3-36.7,25.9-65,53.2-65s49.9,28.4,53.2,65h11.1c-3.5-42.8-31-76-64.3-76s-60.8,33.3-64.3,76
	H-2805.2z"/>
<path class="st0" d="M-2671.9-202.7h-160.2L-2843.5-32h183.1L-2671.9-202.7z M-2812.6-169.3c-6.7,0-12-5.4-12-12c0-6.7,5.4-12,12-12
	s12,5.4,12,12C-2800.5-174.7-2805.9-169.3-2812.6-169.3z M-2695.9-169.3c-6.7,0-12-5.4-12-12c0-6.7,5.4-12,12-12c6.7,0,12,5.4,12,12
	C-2683.9-174.7-2689.3-169.3-2695.9-169.3z"/>
<g>
	
		<ellipse transform="matrix(0.9951 -9.853696e-02 9.853696e-02 0.9951 62.1516 -189.5826)" class="st0" cx="-1888.2" cy="-724" rx="27.5" ry="27.5"/>
	<path class="st0" d="M-1806-764.9c-1.2-30.1-26-54.2-56.4-54.2c-21.2,0-39.7,11.7-49.3,29c-2.9-0.5-5.9-0.8-8.9-0.8
		c-24.7,0-45,18.7-47.4,42.8c-0.1,0-0.2,0-0.3,0c-26.3,0-47.7,21.3-47.7,47.7c0,26.3,21.3,47.7,47.7,47.7h151.8
		c31.2,0,56.5-25.3,56.5-56.5C-1760-737-1779.8-760-1806-764.9z M-1830.1-712.1h-14.3c-1,3.7-2.5,7.3-4.4,10.5l10.1,10.1
		c-4.4,6.7-10.1,12.4-16.8,16.8l-10.1-10.1c-3.3,1.9-6.8,3.4-10.6,4.4v14.3c-3.9,0.8-7.9,1.2-12,1.2c-4,0-7.9-0.4-11.7-1.2v-14.3
		c-3.8-1-7.4-2.5-10.7-4.4l-10.1,10.1c-2.7-1.8-5.3-3.8-7.7-6.1l-3.2-3.2c-2.2-2.3-4.1-4.8-5.9-7.5l10.1-10.1
		c-1.9-3.3-3.4-6.9-4.5-10.7h-14.3c-0.6-2.7-0.9-5.5-1.1-8.4v-7.1c0.2-2.8,0.5-5.6,1.1-8.3h14.3c1-3.8,2.5-7.4,4.5-10.7l-10.1-10.1
		c1.6-2.5,3.4-4.8,5.4-7l4.3-4.3c2.2-2,4.6-3.9,7.1-5.5l10.1,10.1c3.3-1.9,6.9-3.4,10.7-4.4v-14.3c3.8-0.8,7.7-1.2,11.7-1.2
		c4.1,0,8.2,0.4,12,1.2v14.3c3.7,1,7.3,2.5,10.6,4.4l10.1-10.1c6.7,4.4,12.4,10.2,16.8,16.9l-10.1,10.1c1.9,3.3,3.3,6.8,4.3,10.5
		h14.3c0.8,3.8,1.2,7.8,1.2,11.9C-1828.9-719.9-1829.4-715.9-1830.1-712.1z"/>
</g>
<path class="st0" d="M-1518-188.9c-1.2-30.1-26-54.2-56.4-54.2c-21.2,0-39.7,11.7-49.3,29c-2.9-0.5-5.9-0.8-8.9-0.8
	c-24.7,0-45,18.7-47.4,42.8c-0.1,0-0.2,0-0.3,0c-26.3,0-47.7,21.3-47.7,47.7c0,26.3,21.3,47.7,47.7,47.7h57.7v-33.2h-43.7l66.3-87.7
	l66.3,87.7h-43.7v33.2h48.9c31.2,0,56.5-25.3,56.5-56.5C-1472-161-1491.8-184-1518-188.9z"/>
<path class="st0" d="M-1518-476.9c-1.2-30.1-26-54.2-56.4-54.2c-0.5,0-1,0-1.6,0v67.7h43.7l-66.3,87.7l-66.3-87.7h43.7v-42.7
	c-0.9,1.3-1.7,2.6-2.5,4c-2.9-0.5-5.9-0.8-8.9-0.8c-24.7,0-45,18.7-47.4,42.8c-0.1,0-0.2,0-0.3,0c-26.3,0-47.7,21.3-47.7,47.7
	c0,26.3,21.3,47.7,47.7,47.7h151.8c31.2,0,56.5-25.3,56.5-56.5C-1472-449-1491.8-472-1518-476.9z"/>
<rect x="-1440" y="-344" class="st0" width="256" height="24"/>
<polygon class="st0" points="-1284.5,-76.9 -1284.5,-172.7 -1231.5,-172.7 -1312,-287.3 -1392.5,-172.7 -1339.5,-172.7 
	-1339.5,-76.9 "/>
<rect x="-1440" y="-56.7" class="st0" width="256" height="24"/>
<polygon class="st0" points="-1045.1,-515 -1045.1,-441.7 -1085.7,-441.7 -1024,-353.9 -962.3,-441.7 -1002.9,-441.7 -1002.9,-515 
	"/>
<rect x="-1122" y="-338.4" class="st0" width="196.1" height="18.4"/>
<rect x="-1045.1" y="-539.1" class="st0" width="42.2" height="15.6"/>
<rect x="-1045.1" y="-555.4" class="st0" width="42.2" height="10.7"/>
<rect x="-1045.1" y="-567.3" class="st0" width="42.2" height="6.2"/>
<rect x="-1045.1" y="-576" class="st0" width="42.2" height="3.1"/>
<polygon class="st0" points="-1002.9,-126.8 -1002.9,-200.2 -962.3,-200.2 -1024,-288 -1085.7,-200.2 -1045.1,-200.2 
	-1045.1,-126.8 "/>
<rect x="-1122" y="-50.4" class="st0" width="196.1" height="18.4"/>
<rect x="-1045.1" y="-118.3" transform="matrix(-1 3.267947e-07 -3.267947e-07 -1 -2047.9558 -221.0446)" class="st0" width="42.2" height="15.6"/>
<rect x="-1045.1" y="-97.1" transform="matrix(-1 3.267950e-07 -3.267950e-07 -1 -2048 -183.5378)" class="st0" width="42.2" height="10.7"/>
<rect x="-1045.1" y="-80.8" transform="matrix(-1 3.267950e-07 -3.267950e-07 -1 -2048 -155.3929)" class="st0" width="42.2" height="6.2"/>
<rect x="-1045.1" y="-69" transform="matrix(-1 3.267950e-07 -3.267950e-07 -1 -2047.9558 -134.8289)" class="st0" width="42.2" height="3.1"/>
<rect x="288" y="-1440" class="st0" width="256" height="56.5"/>
<rect x="288" y="-1340.2" class="st0" width="256" height="56.5"/>
<rect x="288" y="-1240.5" class="st0" width="256" height="56.5"/>
<rect x="288" y="-1152" class="st0" width="256" height="56.5"/>
<rect x="288" y="-1052.2" class="st0" width="177.7" height="56.5"/>
<rect x="288" y="-952.5" class="st0" width="98" height="56.5"/>
<rect x="88" y="-1152" class="st0" width="168" height="56.5"/>
<rect x="88" y="-1052.2" class="st0" width="168" height="56.5"/>
<rect x="88" y="-952.5" class="st0" width="168" height="56.5"/>
<circle class="st0" cx="128" cy="-1312" r="28"/>
<circle class="st0" cx="128" cy="-1212" r="28"/>
<circle class="st0" cx="128" cy="-1411" r="28"/>
<circle class="st0" cx="30.3" cy="-1024.5" r="28"/>
<circle class="st0" cx="30.3" cy="-924.5" r="28"/>
<circle class="st0" cx="30.3" cy="-1123.5" r="28"/>
<path class="st0" d="M416-864c-70.7,0-128,57.3-128,128s57.3,128,128,128s128-57.3,128-128S486.7-864,416-864z M488-662H344v-31.8
	h144V-662z M488-718.1H344v-31.8h144V-718.1z M488-774.2H344V-806h144V-774.2z"/>
<path class="st0" d="M128-864C57.3-864,0-806.7,0-736s57.3,128,128,128s128-57.3,128-128S198.7-864,128-864z M128-808
	c8.7,0,15.8,7.1,15.8,15.8c0,8.7-7.1,15.8-15.8,15.8s-15.8-7.1-15.8-15.8C112.2-800.9,119.3-808,128-808z M128-664
	c-8.7,0-15.8-7.1-15.8-15.8c0-8.7,7.1-15.8,15.8-15.8s15.8,7.1,15.8,15.8C143.8-671.1,136.7-664,128-664z M128-720.5
	c-8.7,0-15.8-7.1-15.8-15.8s7.1-15.8,15.8-15.8s15.8,7.1,15.8,15.8S136.7-720.5,128-720.5z"/>
<path class="st0" d="M128-576C57.3-576,0-518.7,0-448s57.3,128,128,128s128-57.3,128-128S198.7-576,128-576z M72.4-374.3
	c-8.7,0-15.8-7.1-15.8-15.8s7.1-15.8,15.8-15.8s15.8,7.1,15.8,15.8S81.1-374.3,72.4-374.3z M72.4-430.5c-8.7,0-15.8-7.1-15.8-15.8
	S63.7-462,72.4-462s15.8,7.1,15.8,15.8S81.1-430.5,72.4-430.5z M72.4-486.2c-8.7,0-15.8-7.1-15.8-15.8s7.1-15.8,15.8-15.8
	s15.8,7.1,15.8,15.8S81.1-486.2,72.4-486.2z M199.3-374h-94.5v-31.8h94.5V-374z M199.3-430.1h-94.5v-31.8h94.5V-430.1z M199.3-486.2
	h-94.5V-518h94.5V-486.2z"/>
<path class="st0" d="M416-576c-70.7,0-128,57.3-128,128s57.3,128,128,128s128-57.3,128-128S486.7-576,416-576z M399.1-378H344v-31.8
	h55.1V-378z M443.9-434.1H344v-31.8h99.9V-434.1z M488-490.2H344V-522h144V-490.2z"/>
<rect y="-288" class="st0" width="112" height="112"/>
<rect x="144" y="-288" class="st0" width="112" height="112"/>
<rect y="-144" class="st0" width="112" height="112"/>
<rect x="144" y="-144" class="st0" width="112" height="112"/>
<rect x="384" y="-192" class="st0" width="64" height="64"/>
<rect x="384" y="-96" class="st0" width="64" height="64"/>
<rect x="480" y="-192" class="st0" width="64" height="64"/>
<rect x="480" y="-96" class="st0" width="64" height="64"/>
<rect x="480" y="-288" class="st0" width="64" height="64"/>
<rect x="384" y="-288" class="st0" width="64" height="64"/>
<rect x="288" y="-192" class="st0" width="64" height="64"/>
<rect x="288" y="-96" class="st0" width="64" height="64"/>
<rect x="288" y="-288" class="st0" width="64" height="64"/>
<path class="st0" d="M128,0C57.3,0,0,57.3,0,128s57.3,128,128,128s128-57.3,128-128S198.7,0,128,0z M119,200H56v-63h63V200z
	 M119,119H56V56h63V119z M200,200h-63v-63h63V200z M200,119h-63V56h63V119z"/>
<path class="st0" d="M416,0c-70.7,0-128,57.3-128,128s57.3,128,128,128s128-57.3,128-128S486.7,0,416,0z M380,200h-36v-36h36V200z
	 M380,146h-36v-36h36V146z M380,92h-36V56h36V92z M434,200h-36v-36h36V200z M434,146h-36v-36h36V146z M434,92h-36V56h36V92z
	 M488,200h-36v-36h36V200z M488,146h-36v-36h36V146z M488,92h-36V56h36V92z"/>
<g>
	<rect x="-486.1" y="-499.7" class="st0" width="79" height="103.3"/>
	<rect x="-576" y="-448.8" class="st0" width="86.4" height="52.4"/>
	<rect x="-404.7" y="-432" class="st0" width="84.7" height="35.6"/>
</g>
<path class="st0" d="M-733-536.2v-22.4l-97,55.5l97,55.5v-27.8c8.5-1.3,77.7-7.2,125,138.8C-608-531.2-721.9-536.1-733-536.2z"/>
<path class="st0" d="M-752.1-262.1V-288L-864-224l111.9,64v-32.1c9.8-1.5,89.7-8.3,144.1,160.1C-608-256.4-739.4-262.1-752.1-262.1z
	"/>
<polygon class="st0" points="-843.8,-503.1 -767,-547 -767,-559.3 -864,-503.8 -767,-448.3 -767,-459.2 "/>
<path class="st0" d="M-719.9,313.9V288l111.9,64l-111.9,64v-32.1c-9.8-1.5-89.7-8.3-144.1,160.1C-864,319.6-732.6,313.9-719.9,313.9
	z"/>
<g>
	<path class="st0" d="M-739,39.8V17.4l97,55.5l-97,55.5v-27.8c-8.5-1.3-77.7-7.2-125,138.8C-864,44.8-750.1,39.9-739,39.8z"/>
	<polygon class="st0" points="-628.2,72.9 -705,29 -705,16.7 -608,72.2 -705,127.7 -705,116.8 	"/>
</g>
<polygon class="st0" points="-399.1,-131.3 -320,-188.7 -417.8,-188.7 -448,-281.7 -478.2,-188.7 -576,-188.7 -496.9,-131.3 
	-527.1,-38.3 -448,-95.7 -368.9,-38.3 -368.9,-38.3 -368.9,-38.3 "/>
<path class="st0" d="M-32-188.7h-97.8l-30.2-93l-30.2,93H-288l79.1,57.5l-30.2,93l79.1-57.5l79.1,57.5l-30.2-93L-32-188.7z
	 M-105-72.4l-55-39.9l-55,39.9l21-64.6l-55-39.9h68l21-64.6l21,64.6h68l-55,39.9L-105-72.4z"/>
<polygon class="st0" points="-1252.3,0 -1245.7,182 -1324.1,182 -1324.1,145.7 -1419.7,200.8 -1324.1,256 -1324.1,219.7 
	-1244.3,219.7 -1244.3,219.7 -1212.3,219.7 -1204.3,0 "/>
<polygon class="st0" points="-1371.7,288 -1378.3,470 -1299.9,470 -1299.9,433.7 -1204.3,488.8 -1299.9,544 -1299.9,507.7 
	-1379.7,507.7 -1379.7,507.7 -1411.7,507.7 -1419.7,288 "/>
<path class="st0" d="M-334.3,115.2L-334.3,115.2c9-12,14.3-27,14.3-43.2C-320,32.3-352.2,0-392,0c-22.6,0-42.8,10.5-56,26.8
	C-461.2,10.5-481.4,0-504,0c-39.8,0-72,32.3-72,72.1c0,16.2,5.3,31.1,14.4,43.2h0l0.9,1.1c0.6,0.7,1.1,1.4,1.7,2.1L-448,256
	l111.1-137.6c0.5-0.7,1.1-1.3,1.6-2L-334.3,115.2z"/>
<path class="st0" d="M-32,72.1C-32,32.3-64.2,0-104,0c-22.6,0-42.8,10.5-56,26.8C-173.2,10.5-193.4,0-216,0c-39.8,0-72,32.3-72,72.1
	c0,16.2,5.3,31.1,14.4,43.2h0l0.9,1.1c0.6,0.7,1.1,1.4,1.7,2.1L-160,256l111.1-137.6c0.5-0.7,1.1-1.3,1.6-2l1-1.2h0
	C-37.3,103.2-32,88.2-32,72.1z M-67.4,121.4L-160,236.1L-253.8,120c-0.3-0.4-0.7-0.8-1-1.2c-12.2-11.2-19.9-27.2-19.9-45
	c0-33.7,27.3-61,61-61c23.6,0,44,13.4,54.2,33c10.2-19.6,30.6-33,54.2-33c33.7,0,61,27.3,61,61C-44.3,93-53.3,110.2-67.4,121.4z"/>
<circle class="st0" cx="-159.9" cy="-404.5" r="56.8"/>
<path class="st0" d="M-93.2-428.9l61.2-87.4l-45.7-32l-55.5,79.2C-114.8-462.1-100.1-447.4-93.2-428.9z"/>
<path class="st0" d="M-226.8-428.9l-61.2-87.4l45.7-32l55.5,79.2C-205.2-462.1-219.9-447.4-226.8-428.9z"/>
<polygon class="st0" points="-231.7,-548.3 -192.2,-491.8 -128.2,-491.8 -88.6,-548.3 "/>
<path class="st0" d="M-2452-90.2c34.1-5.3,61-32.7,65.4-67.1h-17c-4.7,29.1-29.9,51.4-60.4,51.4s-55.7-22.2-60.4-51.4h-17
	c4.4,34.4,31.3,61.8,65.4,67.1V-56h-52v24h128v-24h-52V-90.2z"/>
<rect x="-2192" y="-308.2" transform="matrix(0.7071 -0.7071 0.7071 0.7071 -524.1992 -1585.528)" class="st0" width="32" height="296.4"/>
<rect x="-1901.3" y="-285.2" transform="matrix(0.7071 -0.7071 0.7071 0.7071 -439.0648 -1379.9955)" class="st0" width="32" height="250.5"/>
<g>
	<path class="st0" d="M-2109.7-126.1c5.8-9.3,9.6-19.8,11.1-31.1h-17c-1.1,6.7-3.3,13-6.3,18.8L-2109.7-126.1z"/>
	<path class="st0" d="M-2164-90.2c6.9-1.1,13.5-3,19.6-5.8l-12.9-12.9c-5.9,1.9-12.2,2.9-18.8,2.9c-30.4,0-55.7-22.2-60.4-51.4h-17
		c4.4,34.4,31.3,61.8,65.4,67.1V-56h-52v24h128v-24h-52V-90.2z"/>
</g>
<g>
	<path class="st0" d="M-2130.1-146.1c2.8-6.3,4.4-13.4,4.4-20.8v-70.3c0-28-22.7-50.8-50.8-50.8c-26.1,0-47.6,19.7-50.5,45.1
		L-2130.1-146.1z"/>
	<path class="st0" d="M-2227.2-178.3v11.5c0,28,22.7,50.8,50.8,50.8c3.6,0,7-0.4,10.4-1.1L-2227.2-178.3z"/>
</g>
<g>
	<path class="st0" d="M-2109.7,161.9c5.8-9.3,9.6-19.8,11.1-31.1h-17c-1.1,6.7-3.3,13-6.3,18.8L-2109.7,161.9z"/>
	<path class="st0" d="M-2164,197.8c6.9-1.1,13.5-3,19.6-5.8l-12.9-12.9c-5.9,1.9-12.2,2.9-18.8,2.9c-30.4,0-55.7-22.2-60.4-51.4h-17
		c4.4,34.4,31.3,61.8,65.4,67.1V232h-52v24h128v-24h-52V197.8z"/>
</g>
<g>
	<path class="st0" d="M-2130.1,141.9c2.8-6.3,4.4-13.4,4.4-20.8V50.8c0-28-22.7-50.8-50.8-50.8c-26.1,0-47.6,19.7-50.5,45.1
		L-2130.1,141.9z"/>
	<path class="st0" d="M-2227.2,109.7v11.5c0,28,22.7,50.8,50.8,50.8c3.6,0,7-0.4,10.4-1.1L-2227.2,109.7z"/>
</g>
<rect x="-2192" y="267.8" transform="matrix(0.7071 -0.7071 0.7071 0.7071 -931.4928 -1416.8213)" class="st0" width="32" height="296.4"/>
<rect x="-1901.3" y="-285.2" transform="matrix(0.7071 0.7071 -0.7071 0.7071 -665.3376 1286.2683)" class="st0" width="32" height="250.5"/>
<path class="st0" d="M-1820.7-127.7c5.2-8.9,8.8-18.9,10.1-29.5h-17c-1,6.1-2.9,11.8-5.5,17.2L-1820.7-127.7z"/>
<g>
	<path class="st0" d="M-1840.9-147.9c2.4-5.9,3.7-12.3,3.7-19v-8.5l-15.6,15.6L-1840.9-147.9z"/>
	<path class="st0" d="M-1885.1-127.5l-10.8,10.8c2.6,0.4,5.2,0.6,7.9,0.6c4.4,0,8.6-0.6,12.7-1.6L-1885.1-127.5z"/>
</g>
<g>
	<path class="st0" d="M-1885.6-192.5l48.2-48.2c-1.8-26.4-23.8-47.3-50.6-47.3c-25.4,0-46.4,18.6-50.2,42.9L-1885.6-192.5z"/>
	<path class="st0" d="M-1938.8-181.2v14.3c0,8,1.9,15.6,5.2,22.4l15.7-15.7L-1938.8-181.2z"/>
</g>
<g>
	<path class="st0" d="M-1941.2-136.9c-3.5-6.2-6-13.1-7.2-20.4h-17c1.5,11.9,5.7,22.9,12,32.5L-1941.2-136.9z"/>
	<path class="st0" d="M-1876-90.2c7.6-1.2,14.9-3.5,21.6-6.7l-12.7-12.7c-6.5,2.4-13.5,3.7-20.9,3.7c-5.7,0-11.2-0.8-16.5-2.2
		l-13.1,13.1c5.6,2.3,11.4,3.9,17.5,4.9V-56h-52v24h128v-24h-52V-90.2z"/>
</g>
<path class="st0" d="M-1820.7,160.3c5.2-8.9,8.8-18.9,10.1-29.5h-17c-1,6.1-2.9,11.8-5.5,17.2L-1820.7,160.3z"/>
<g>
	<path class="st0" d="M-1840.9,140.1c2.4-5.9,3.7-12.3,3.7-19v-8.5l-15.6,15.6L-1840.9,140.1z"/>
	<path class="st0" d="M-1885.1,160.5l-10.8,10.8c2.6,0.4,5.2,0.6,7.9,0.6c4.4,0,8.6-0.6,12.7-1.6L-1885.1,160.5z"/>
</g>
<g>
	<path class="st0" d="M-1885.6,95.5l48.2-48.2C-1839.2,20.9-1861.1,0-1888,0c-25.4,0-46.4,18.6-50.2,42.9L-1885.6,95.5z"/>
	<path class="st0" d="M-1938.8,106.8v14.3c0,8,1.9,15.6,5.2,22.4l15.7-15.7L-1938.8,106.8z"/>
</g>
<g>
	<path class="st0" d="M-1941.2,151.1c-3.5-6.2-6-13.1-7.2-20.4h-17c1.5,11.9,5.7,22.9,12,32.5L-1941.2,151.1z"/>
	<path class="st0" d="M-1876,197.8c7.6-1.2,14.9-3.5,21.6-6.7l-12.7-12.7c-6.5,2.4-13.5,3.7-20.9,3.7c-5.7,0-11.2-0.8-16.5-2.2
		l-13.1,13.1c5.6,2.3,11.4,3.9,17.5,4.9V232h-52v24h128v-24h-52V197.8z"/>
</g>
<rect x="-1901.3" y="290.8" transform="matrix(0.7071 -0.7071 0.7071 0.7071 -846.3585 -1211.2888)" class="st0" width="32" height="250.5"/>
<rect x="-1901.3" y="290.8" transform="matrix(0.7071 0.7071 -0.7071 0.7071 -258.0443 1454.9746)" class="st0" width="32" height="250.5"/>
<path class="st0" d="M-1532.9,0h-67.1h-67.1c0,0,5.2,176.6-39,256l106.1-84.1l106.1,84.1C-1538.1,176.6-1532.9,0-1532.9,0z"/>
<path class="st0" d="M-1525.3,722.7v-27.3c0-0.1,0-0.1,0-0.2c0-0.1,0-0.1,0-0.2v-0.4h0c-0.3-41-33.6-74.1-74.6-74.1
	s-74.3,33.1-74.6,74.1h0v0.4c0,0.1,0,0.1,0,0.2c0,0.1,0,0.1,0,0.2v27.3h-9.5V832h84.2h84.2V722.7H-1525.3z M-1544.7,722.7h-55.3
	h-55.3c0,0,0-24.7,0-25.8c0-35.8,20.8-58.2,55.3-58.2s55.3,22.4,55.3,58.2C-1544.7,698-1544.7,722.7-1544.7,722.7z"/>
<path class="st0" d="M-1525.3,434.7v-72.6h0c-0.3-41-33.6-74.1-74.6-74.1s-74.3,33.1-74.6,74.1h0v28.1h19.3c0,0,0-24.7,0-25.8
	c0-35.8,20.8-58.2,55.3-58.2s55.3,22.4,55.3,58.2c0,0.8,0,55.7,0,70.3h-55.3h-55.3h-19.3h-9.5V544h84.2h84.2V434.7H-1525.3z"/>
<polygon class="st0" points="-1152,459.7 -1117,459.7 -1117,544 -971,416 -1117,288 -1117,372.3 -1152,372.3 "/>
<polygon class="st0" points="-971,84.6 -1006,84.6 -1006,0.3 -1152,128.3 -1006,256.3 -1006,172 -971,172 "/>
<g>
	<polygon class="st0" points="-990,0 -990,38 -934,38 -934,218 -990,218 -990,256 -896,256 -896,0 	"/>
</g>
<g>
	<polygon class="st0" points="-1098,288 -1054.7,326 -934,326 -934,506 -1054.7,506 -1098,544 -896,544 -896,288 	"/>
</g>
<path class="st0" d="M-357.4,658.7l-45.3-45.3l31.9-31.9c7.4-7.4,19.4-7.4,26.8,0l18.5,18.5c7.4,7.4,7.4,19.4,0,26.8L-357.4,658.7z"
	/>
<polygon class="st0" points="-418.1,628.8 -559.5,770.2 -576,832 -514.2,815.5 -372.8,674.1 "/>
<path class="st0" d="M-921.4,632.1l-30.7-30.7l21.6-21.6c5-5,13.1-5,18.2,0l12.6,12.6c5,5,5,13.1,0,18.2L-921.4,632.1z"/>
<polygon class="st0" points="-962.6,611.9 -1058.6,707.9 -1069.8,749.8 -1027.8,738.6 -931.8,642.6 "/>
<g>
	<polygon class="st0" points="-955.1,686.7 -955.1,772.9 -1092.9,772.9 -1092.9,635.1 -1006.7,635.1 -977.6,606 -1122,606 
		-1122,802 -926,802 -926,657.6 	"/>
</g>
<polygon class="st0" points="-2787.8,128 -2644.2,256 -2644.2,0 "/>
<polygon class="st0" points="-2859.8,0 -2859.8,256 -2787.8,256 -2787.8,128 -2787.8,0 "/>
<polygon class="st0" points="-2716.2,416 -2859.8,288 -2859.8,544 "/>
<polygon class="st0" points="-2644.2,544 -2644.2,288 -2716.2,288 -2716.2,416 -2716.2,544 "/>
<g>
	<polygon class="st0" points="-3064.8,832 -3064.8,576 -3136.8,576 -3136.8,704 -3136.8,832 	"/>
	<polygon class="st0" points="-2943.2,832 -2943.2,576 -3015.2,576 -3015.2,704 -3015.2,832 	"/>
</g>
<path class="st0" d="M-2432,576c-53,0-96,43-96,96c0,22,7.4,42.3,19.9,58.5l-20.8,6.1l-63.1,63.1l32.3,32.3l63.1-63.1l6.1-20.8
	c16.2,12.5,36.5,19.9,58.5,19.9c53,0,96-43,96-96S-2379,576-2432,576z M-2432,743.1c-39.3,0-71.1-31.8-71.1-71.1
	s31.8-71.1,71.1-71.1s71.1,31.8,71.1,71.1S-2392.7,743.1-2432,743.1z"/>
<path class="st0" d="M-2144,576c-53,0-96,43-96,96c0,22,7.4,42.3,19.9,58.5l-20.8,6.1l-63.1,63.1l32.3,32.3l63.1-63.1l6.1-20.8
	c16.2,12.5,36.5,19.9,58.5,19.9c53,0,96-43,96-96S-2091,576-2144,576z M-2144,743.1c-39.3,0-71.1-31.8-71.1-71.1
	s31.8-71.1,71.1-71.1s71.1,31.8,71.1,71.1S-2104.7,743.1-2144,743.1z"/>
<path class="st0" d="M-1856,576c-53,0-96,43-96,96c0,22,7.4,42.3,19.9,58.5l-20.8,6.1l-63.1,63.1l32.3,32.3l63.1-63.1l6.1-20.8
	c16.2,12.5,36.5,19.9,58.5,19.9c53,0,96-43,96-96S-1803,576-1856,576z M-1856,743.1c-39.3,0-71.1-31.8-71.1-71.1
	s31.8-71.1,71.1-71.1s71.1,31.8,71.1,71.1S-1816.7,743.1-1856,743.1z"/>
<path class="st0" d="M-62.4,462.5V352.6v-35.9v-0.3l0,0l0,0l-167.1,23.7l0,0h0v107.5c-18,0.9-32.2,15.8-32.2,34
	c0,18.8,15.2,34,34,34s34-15.2,34-34V371.2l95.5-13.5v70.9c-18,0.9-32.2,15.8-32.2,34c0,18.8,15.2,34,34,34S-62.4,481.3-62.4,462.5
	C-62.4,462.5-62.4,462.5-62.4,462.5z"/>
<g>
	
		<rect x="112.2" y="264.3" transform="matrix(0.4684 0.8835 -0.8835 0.4684 422.1196 99.9464)" class="st0" width="31.6" height="273"/>
	<g>
		<path class="st0" d="M189.8,395.1v33.4c-18,0.9-32.2,15.8-32.2,34c0,18.8,15.2,34,34,34c18.8,0,34-15.2,34-34c0,0,0,0,0,0v-86.4
			L189.8,395.1z"/>
		<polygon class="st0" points="58.5,410.6 94.3,391.6 94.3,371.2 146.8,363.7 225.6,321.9 225.6,316.7 225.6,316.4 225.6,316.4 
			225.6,316.4 58.5,340.1 58.5,340.1 58.5,340.1 		"/>
		<path class="st0" d="M26.2,481.8c0.1,18.7,15.3,33.8,34,33.8c18.8,0,34-15.2,34-34v-35.8L26.2,481.8z"/>
	</g>
</g>
<rect x="400.2" y="264.3" transform="matrix(0.4684 0.8835 -0.8835 0.4684 575.2081 -154.4998)" class="st0" width="31.6" height="273"/>
<g>
	<path class="st0" d="M189.8,683.1v33.4c-18,0.9-32.2,15.8-32.2,34c0,18.8,15.2,34,34,34c18.8,0,34-15.2,34-34c0,0,0,0,0,0v-86.4
		L189.8,683.1z"/>
	<polygon class="st0" points="58.5,698.6 94.3,679.6 94.3,659.2 146.8,651.7 225.6,609.9 225.6,604.7 225.6,604.4 225.6,604.4 
		225.6,604.4 58.5,628.1 58.5,628.1 58.5,628.1 	"/>
	<path class="st0" d="M26.2,769.8c0.1,18.7,15.3,33.8,34,33.8c18.8,0,34-15.2,34-34v-35.8L26.2,769.8z"/>
</g>
<g>
	<path class="st0" d="M-1398.1,576v205.7h172.2V576H-1398.1z M-1251.3,759.3h-123.4V598.4h123.4V759.3z"/>
	<polygon class="st0" points="-1398.1,781.7 -1308.3,832 -1308.3,626.3 -1398.1,576 	"/>
</g>
<path class="st0" d="M-327.6,447.8c0-5.9-1.9-11.4-5-15.9c3.2-4.5,5-10,5-15.9c0-15.2-12.3-27.6-27.6-27.6c0,0-73.1,1.5-91.7,0
	c-18.6-1.5-4.7-73.8-8.2-83.9c-3.4-10.1-11.1-20.7-27-15.1c0.4,31.4-3.1,42.2-4.5,44.4c-1.5,2.3-3.2,3.5-4.1,5.9
	c0,0-27.1,80.1-31.9,81.3c-4.8,1.2-45.8,1-45.8,1V544c0,0,101.8-3.1,106.4-2.6c4.7,0.5,4.6,2.2,10.5,2.4c5.9,0.2,61.7,0.4,68.5,0
	c6.8-0.4,7.9-3.1,16.6-6.1c13.5,0,24.4-10.9,24.4-24.4c0-3.2-0.6-6.3-1.8-9.1c5.8-4.5,9.6-11.5,9.6-19.3c0-5.5-1.8-10.6-4.9-14.6
	C-332.1,465.2-327.6,457-327.6,447.8z"/>
<path class="st0" d="M-615.6,672.2c0,5.9-1.9,11.4-5,15.9c3.2,4.5,5,10,5,15.9c0,15.2-12.3,27.6-27.6,27.6c0,0-73.1-1.5-91.7,0
	c-18.6,1.5-4.7,73.8-8.2,83.9c-3.4,10.1-11.1,20.7-27,15.1c0.4-31.4-3.1-42.2-4.5-44.4s-3.2-3.5-4.1-5.9c0,0-27.1-80.1-31.9-81.3
	c-4.8-1.2-45.8-1-45.8-1V576c0,0,101.8,3.1,106.4,2.6c4.7-0.5,4.6-2.2,10.5-2.4c5.9-0.2,61.7-0.4,68.5,0c6.8,0.4,7.9,3.1,16.6,6.1
	c13.5,0,24.4,10.9,24.4,24.4c0,3.2-0.6,6.3-1.8,9.1c5.8,4.5,9.6,11.5,9.6,19.3c0,5.5-1.8,10.6-4.9,14.6
	C-620.1,654.8-615.6,663-615.6,672.2z"/>
<path class="st0" d="M-160,576c-70.7,0-128,57.3-128,128s57.3,128,128,128s128-57.3,128-128S-89.3,576-160,576z M-249.7,704
	c0-16,4.2-31.1,11.6-44.1l122.2,122.2c-13,7.4-28.1,11.6-44.1,11.6C-209.5,793.7-249.7,753.5-249.7,704z M-81.9,748.1l-122.2-122.2
	c13-7.4,28.1-11.6,44.1-11.6c49.5,0,89.7,40.1,89.7,89.7C-70.3,720-74.6,735.1-81.9,748.1z"/>
<g>
	<polygon class="st0" points="368,720.7 368,687.3 343.7,687.3 343.7,655.1 288,704 343.7,752.9 343.7,720.7 	"/>
	<polygon class="st0" points="464,687.3 464,720.7 488.3,720.7 488.3,752.9 544,704 488.3,655.1 488.3,687.3 	"/>
	<polygon class="st0" points="432.7,752 399.3,752 399.3,776.3 367.1,776.3 416,832 464.9,776.3 432.7,776.3 	"/>
	<polygon class="st0" points="399.3,656 432.7,656 432.7,631.7 464.9,631.7 416,576 367.1,631.7 399.3,631.7 	"/>
</g>
<g>
	<polygon class="st0" points="832,720.7 832,687.3 807.7,687.3 807.7,655.1 752,704 807.7,752.9 807.7,720.7 	"/>
	<polygon class="st0" points="576,687.3 576,720.7 600.3,720.7 600.3,752.9 656,704 600.3,655.1 600.3,687.3 	"/>
	<g>
		<polygon class="st0" points="720.7,576 687.3,576 687.3,600.3 655.1,600.3 704,656 752.9,600.3 720.7,600.3 		"/>
		<polygon class="st0" points="687.3,832 720.7,832 720.7,807.7 752.9,807.7 704,752 655.1,807.7 687.3,807.7 		"/>
	</g>
</g>
<polygon class="st0" points="1120,576 864,576 959.4,694 959.4,832 960.1,832 1023.4,789.2 1023.4,695.5 "/>
<g>
	<polygon class="st0" points="1232.7,746.9 1378.7,746.9 1408,649.1 1210.9,649.6 1196.4,620.9 1152.1,621 1152,636.7 1185.2,636.7 
			"/>
	<circle class="st0" cx="1245.1" cy="770.8" r="16.3"/>
	<circle class="st0" cx="1370" cy="770.8" r="16.3"/>
</g>
</svg>
